<?xml version="1.0" encoding="UTF-8"?>
<svg id="Layer_2" data-name="Layer 2" xmlns="http://www.w3.org/2000/svg" viewBox="0 0 23.34 24">
  <defs>
    <style>
      .cls-1 {
        fill: #f2f2f2;
      }
    </style>
  </defs>
  <g id="Layer_1-2" data-name="Layer 1">
    <g>
      <path class="cls-1" d="M17.01,4.1c5.1,2.94,6.85,9.46,3.9,14.56-2.94,5.1-9.46,6.85-14.56,3.9-3.18-1.84-5.19-5.18-5.32-8.85v-.38s0-.38,0-.38C1.23,7.07,6.17,2.47,12.06,2.68c1.74,.06,3.44,.55,4.95,1.42Zm-5.33,3.9c-.74,0-1.33,.6-1.33,1.33v4.15c.09,.67,.66,1.18,1.33,1.18h2.82c.67-.09,1.18-.66,1.18-1.33v-.16c-.09-.67-.66-1.18-1.33-1.18h-1.33v-2.82c-.09-.67-.66-1.18-1.33-1.18Z"/>
      <path class="cls-1" d="M4.23,.26c.59-.44,1.43-.32,1.86,.28,.41,.55,.33,1.31-.17,1.78l-.13,.11-3.66,2.67c-.59,.44-1.42,.33-1.87-.26-.42-.55-.34-1.33,.17-1.79l.13-.11L4.23,.26h0Z"/>
      <path class="cls-1" d="M17.26,.56c.39-.54,1.13-.71,1.72-.38l.14,.09,3.66,2.67c.6,.43,.73,1.27,.29,1.86-.39,.54-1.13,.71-1.72,.38l-.14-.09-3.66-2.67c-.59-.43-.73-1.27-.29-1.86h0s0,0,0,0Z"/>
    </g>
  </g>
</svg>