<?xml version="1.0" encoding="UTF-8"?>
<svg id="Layer_2" data-name="Layer 2" xmlns="http://www.w3.org/2000/svg" viewBox="0 0 450 450">
  <defs>
    <style>
      .cls-1 {
        fill: #f43f5e;
      }

      .cls-2 {
        fill: #fd4c72;
      }
    </style>
  </defs>
  <g id="Layer_1-2" data-name="Layer 1">
    <g>
      <circle class="cls-2" cx="225" cy="225" r="225"/>
      <path class="cls-1" d="M225,0c-.05,0-.11,0-.16,0-.02,0-.03,0-.05,0-.05,0-.09,0-.13,0-.01,0-.02,0-.03,0-.05,0-.11,0-.16,0-.01,0-.02,0-.04,0-.05,0-.08,0-.13,0-.01,0-.03,0-.04,0-.05,0-.11,0-.16,0,0,0-.01,0-.02,0-.05,0-.1,0-.14,0-.01,0-.03,0-.04,0-.05,0-.1,0-.14,0,0,0-.01,0-.02,0-.05,0-.11,0-.16,0-.02,0-.03,0-.05,0-.05,0-.08,0-.12,0-.01,0-.03,0-.04,0-.05,0-.11,0-.16,0-.01,0-.02,0-.04,0-.05,0-.08,0-.13,0-.02,0-.03,0-.05,0-.05,0-.1,0-.16,0,0,0,0,0-.02,0-.05,0-.1,0-.15,0-.02,0-.03,0-.05,0-.05,0-.08,0-.13,0-.01,0-.02,0-.04,0-.05,0-.1,0-.16,0-.02,0-.03,0-.04,0-.05,0-.07,0-.12,0-.02,0-.03,0-.05,0-.05,0-.1,0-.16,0,0,0-.02,0-.02,0-.05,0-.09,0-.14,0-.02,0-.03,0-.05,0-.05,0-.09,0-.14,0,0,0-.02,0-.03,0-.05,0-.11,0-.16,0-.01,0-.03,0-.04,0-.05,0-.08,0-.13,0-.01,0-.02,0-.04,0-.06,0-.1,0-.16,0-.01,0-.02,0-.03,0-.05,0-.09,0-.14,0-.01,0-.03,0-.04,0-.05,0-.11,0-.16,0h0c-.05,0-.11,0-.16,0-.02,0-.03,0-.04,0-.05,0-.09,0-.13,0-.01,0-.02,0-.03,0-.05,0-.11,0-.16,0-.01,0-.02,0-.04,0-.05,0-.08,0-.13,0-.01,0-.03,0-.04,0-.05,0-.11,0-.16,0-.01,0-.02,0-.03,0-.05,0-.09,0-.13,0-.02,0-.03,0-.05,0-.05,0-.09,0-.14,0,0,0-.01,0-.02,0-.05,0-.1,0-.16,0-.02,0-.03,0-.05,0-.05,0-.08,0-.12,0-.01,0-.03,0-.04,0-.05,0-.11,0-.16,0,0,0-.02,0-.03,0-.05,0-.09,0-.13,0-.01,0-.03,0-.04,0-.05,0-.1,0-.15,0,0,0-.02,0-.03,0-.05,0-.1,0-.15,0-.01,0-.03,0-.05,0-.05,0-.09,0-.13,0-.01,0-.02,0-.03,0-.05,0-.11,0-.16,0-.01,0-.02,0-.04,0-.05,0-.09,0-.13,0-.01,0-.03,0-.04,0-.05,0-.11,0-.16,0,0,0-.01,0-.02,0-.05,0-.1,0-.14,0-.01,0-.03,0-.04,0-.05,0-.1,0-.15,0,0,0-.01,0-.02,0-.05,0-.11,0-.16,0-.01,0-.03,0-.04,0-.05,0-.09,0-.14,0,0,0-.02,0-.03,0-.06,0-.1,0-.16,0,0,0-.02,0-.03,0-.05,0-.09,0-.13,0-.01,0-.03,0-.04,0-.05,0-.11,0-.16,0,0,0,0,0,0,0-.05,0-.1,0-.16,0-.01,0-.03,0-.04,0-.05,0-.09,0-.13,0-.01,0-.02,0-.03,0-.06,0-.1,0-.16,0-.01,0-.02,0-.03,0-.05,0-.09,0-.13,0-.01,0-.03,0-.04,0-.05,0-.11,0-.16,0,0,0-.01,0-.02,0-.05,0-.1,0-.14,0-.01,0-.03,0-.04,0-.05,0-.1,0-.14,0,0,0-.01,0-.02,0-.05,0-.11,0-.16,0-.01,0-.03,0-.04,0-.05,0-.09,0-.13,0-.01,0-.02,0-.03,0-.06,0-.1,0-.16,0-.01,0-.02,0-.03,0-.05,0-.09,0-.13,0-.01,0-.03,0-.04,0-.05,0-.11,0-.16,0,0,0,0,0,0,0-.05,0-.11,0-.16,0-.01,0-.03,0-.04,0-.04,0-.1,0-.14,0,0,0-.01,0-.02,0-.05,0-.11,0-.16,0-.01,0-.03,0-.04,0-.04,0-.08,0-.13,0-.01,0-.03,0-.04,0-.05,0-.11,0-.16,0,0,0-.01,0-.02,0-.04,0-.1,0-.14,0-.01,0-.03,0-.04,0-.1,0-.22,.01-.33,.02-.01,0-.02,0-.03,0-.04,0-.09,0-.14,0-.01,0-.02,0-.03,0-.06,0-.1,0-.16,0-.01,0-.02,0-.03,0-.04,0-.09,0-.13,0-.01,0-.03,0-.04,0-.05,0-.11,0-.16,0,0,0,0,0,0,0-.05,0-.11,0-.16,0-.01,0-.02,0-.04,0-.04,0-.1,0-.15,0,0,0-.01,0-.02,0-.05,0-.11,0-.16,0-.01,0-.02,0-.03,0-.04,0-.09,0-.13,0-.01,0-.02,0-.04,0-.05,0-.11,0-.16,0,0,0,0,0-.02,0-.04,0-.1,0-.15,0-.01,0-.03,0-.04,0-.05,0-.11,0-.16,0h0c-.05,0-.11,0-.16,.01-.01,0-.03,0-.04,0-.04,0-.09,0-.13,0-.01,0-.02,0-.03,0-.06,0-.1,0-.16,.01,0,0-.02,0-.02,0-.04,0-.1,0-.14,0-.01,0-.03,0-.04,0-.05,0-.11,0-.16,.01h0c-.05,0-.11,0-.16,.01-.01,0-.02,0-.03,0-.04,0-.1,0-.15,0,0,0-.01,0-.02,0-.06,0-.1,0-.16,.01-.01,0-.02,0-.03,0-.04,0-.09,0-.14,0-.01,0-.02,0-.03,0-.05,0-.11,0-.16,.01,0,0,0,0-.01,0-.05,0-.1,0-.15,.01-.01,0-.02,0-.03,0-.1,0-.22,.02-.33,.02-.01,0-.03,0-.04,0-.04,0-.09,0-.14,.01,0,0-.02,0-.03,0-.06,0-.1,0-.16,.01,0,0-.02,0-.03,0-.04,0-.09,0-.14,.01-.01,0-.02,0-.03,0-.1,0-.22,.02-.33,.02-.01,0-.02,0-.04,0-.04,0-.1,0-.14,.01,0,0-.01,0-.02,0-.06,0-.1,0-.16,.01-.01,0-.02,0-.03,0-.04,0-.1,0-.14,.01-.01,0-.02,0-.03,0-.05,0-.11,0-.16,.01,0,0,0,0,0,0-.05,0-.1,0-.15,.01-.01,0-.02,0-.03,0-.1,0-.22,.02-.33,.03-.01,0-.02,0-.03,0-.04,0-.1,0-.14,.01,0,0-.02,0-.02,0-.06,0-.11,0-.17,.01h-.02s-.1,.01-.15,.01c0,0-.02,0-.03,0-.1,0-.22,.02-.33,.03-.01,0-.02,0-.04,0-.04,0-.1,0-.15,.01,0,0-.01,0-.02,0-.06,0-.1,0-.16,.01-.01,0-.02,0-.03,0-.04,0-.09,0-.14,.01-.01,0-.02,0-.04,0-.05,0-.11,.01-.16,.01h0c-.05,0-.11,0-.16,.01-.01,0-.02,0-.03,0-.1,0-.22,.02-.33,.03-.01,0-.02,0-.03,0-.04,0-.1,0-.14,.01,0,0-.01,0-.02,0-.06,0-.11,0-.16,.02,0,0-.02,0-.02,0-.04,0-.1,0-.14,.01-.01,0-.02,0-.03,0-.05,0-.11,.01-.16,.02,0,0,0,0,0,0-.05,0-.1,0-.16,.01-.01,0-.02,0-.04,0-.04,0-.1,0-.14,.01,0,0-.02,0-.02,0-.05,0-.11,.01-.16,.02-.01,0-.02,0-.04,0-.04,0-.09,0-.13,.01-.01,0-.02,0-.04,0-.05,0-.11,.01-.16,.02,0,0-.01,0-.02,0-.04,0-.1,0-.14,.01-.01,0-.03,0-.04,0-.05,0-.1,.01-.15,.02,0,0,0,0,0,0-.05,0-.11,.01-.16,.02-.02,0-.03,0-.05,0-.04,0-.08,0-.13,.01-.01,0-.02,0-.03,0-.06,0-.1,.01-.16,.02,0,0-.02,0-.03,0-.04,0-.1,0-.14,.01-.01,0-.02,0-.03,0-.1,.01-.22,.02-.33,.03-.01,0-.02,0-.03,0-.05,0-.1,.01-.16,.02,0,0,0,0,0,0-.06,0-.11,.01-.17,.02,0,0-.01,0-.02,0-.04,0-.1,.01-.14,.02,0,0-.02,0-.03,0-.05,0-.11,.01-.16,.02,0,0-.01,0-.02,0-.04,0-.1,.01-.15,.02-.01,0-.02,0-.04,0-.1,.01-.22,.02-.32,.04-.01,0-.02,0-.04,0-.04,0-.1,.01-.14,.02,0,0-.01,0-.02,0-.06,0-.1,.01-.16,.02-.01,0-.02,0-.03,0-.04,0-.09,.01-.13,.02-.01,0-.02,0-.04,0-.05,0-.11,.01-.16,.02,0,0,0,0,0,0-.05,0-.1,.01-.15,.02-.01,0-.03,0-.04,0-.04,0-.1,.01-.14,.02,0,0-.01,0-.02,0-.06,0-.11,.01-.16,.02,0,0-.02,0-.02,0-.04,0-.1,.01-.14,.02-.01,0-.02,0-.03,0-.05,0-.11,.01-.16,.02,0,0,0,0-.02,0-.04,0-.1,.01-.15,.02-.01,0-.02,0-.03,0-.1,.01-.22,.03-.32,.04-.01,0-.02,0-.04,0-.04,0-.1,.01-.14,.02,0,0-.01,0-.02,0-.06,0-.1,.01-.16,.02,0,0-.02,0-.02,0-.04,0-.1,.01-.14,.02-.01,0-.02,0-.03,0-.05,0-.11,.01-.16,.02,0,0,0,0,0,0-.05,0-.11,.01-.16,.02-.01,0-.02,0-.03,0-.05,0-.11,.01-.16,.02h0c-.06,0-.11,.01-.17,.02,0,0-.02,0-.03,0-.04,0-.09,.01-.14,.02-.01,0-.02,0-.03,0-.05,0-.11,.01-.16,.02,0,0,0,0,0,0-.05,0-.1,.01-.15,.02-.01,0-.02,0-.03,0-.1,.01-.22,.03-.32,.04-.01,0-.02,0-.03,0-.04,0-.1,.01-.15,.02,0,0-.01,0-.02,0-.06,0-.11,.01-.16,.02,0,0-.01,0-.02,0-.04,0-.1,.01-.14,.02-.01,0-.02,0-.03,0-.1,.01-.22,.03-.32,.04-.01,0-.02,0-.03,0-.05,0-.11,.01-.16,.02,0,0,0,0,0,0-.06,0-.11,.01-.17,.02,0,0-.02,0-.02,0-.04,0-.1,.01-.15,.02,0,0-.02,0-.02,0-.06,0-.11,.01-.17,.02,0,0,0,0,0,0-.05,0-.11,.01-.16,.02,0,0-.02,0-.03,0-.1,.01-.22,.03-.32,.04-.01,0-.02,0-.03,0-.04,0-.1,.01-.15,.02,0,0-.01,0-.02,0-.06,0-.11,.02-.17,.02,0,0,0,0-.01,0-.05,0-.1,.01-.15,.02,0,0-.01,0-.02,0-.12,.02-.21,.03-.33,.05,0,0-.01,0-.02,0-.05,0-.11,.02-.16,.02h0c-.06,0-.11,.02-.17,.02,0,0-.01,0-.02,0-.04,0-.1,.02-.15,.02,0,0-.02,0-.02,0-.06,0-.11,.02-.16,.02,0,0,0,0,0,0-.05,0-.11,.02-.16,.02,0,0-.02,0-.03,0-.1,.02-.22,.03-.32,.05-.01,0-.02,0-.03,0-.05,0-.1,.01-.15,.02,0,0,0,0-.01,0-.06,0-.11,.02-.16,.02,0,0-.01,0-.02,0-.04,0-.1,.02-.14,.02,0,0-.02,0-.03,0-.1,.02-.22,.03-.32,.05-.01,0-.02,0-.03,0-.05,0-.1,.02-.15,.02,0,0,0,0-.01,0-.06,0-.11,.02-.16,.03,0,0-.02,0-.02,0-.04,0-.1,.02-.14,.02,0,0-.02,0-.02,0-.06,0-.11,.02-.16,.03,0,0,0,0,0,0-.05,0-.11,.02-.16,.02,0,0-.02,0-.03,0-.1,.02-.22,.04-.32,.05,0,0-.02,0-.03,0-.05,0-.1,.02-.15,.02,0,0,0,0,0,0-.06,0-.11,.02-.17,.03,0,0,0,0-.01,0-.06,0-.1,.02-.16,.03,0,0,0,0-.02,0-.12,.02-.22,.03-.33,.05,0,0-.01,0-.02,0-.11,.02-.22,.04-.33,.05,0,0-.02,0-.03,0-.04,0-.1,.02-.14,.02,0,0-.02,0-.03,0-.11,.02-.22,.04-.33,.05,0,0-.02,0-.02,0-.12,.02-.21,.04-.33,.06,0,0-.02,0-.02,0-.05,0-.1,.02-.15,.03,0,0,0,0-.01,0-.06,0-.11,.02-.17,.03,0,0,0,0-.01,0-.05,0-.1,.02-.15,.03,0,0-.01,0-.02,0-.11,.02-.22,.04-.33,.06,0,0-.02,0-.02,0-.11,.02-.22,.04-.33,.06,0,0-.01,0-.02,0-.04,0-.11,.02-.15,.03,0,0-.01,0-.02,0-.06,.01-.11,.02-.17,.03,0,0,0,0,0,0-.05,0-.11,.02-.16,.03,0,0-.02,0-.03,0-.1,.02-.22,.04-.32,.06-.01,0-.02,0-.03,0-.05,0-.1,.02-.15,.03,0,0,0,0-.01,0-.06,.01-.11,.02-.17,.03,0,0,0,0-.01,0-.05,0-.1,.02-.15,.03,0,0-.02,0-.02,0-.11,.02-.22,.04-.32,.06,0,0-.02,0-.03,0-.05,0-.11,.02-.16,.03,0,0,0,0,0,0-.06,.01-.11,.02-.16,.03,0,0-.01,0-.02,0-.04,0-.1,.02-.15,.03,0,0-.01,0-.02,0-.06,.01-.11,.02-.17,.03h0c-.05,0-.11,.02-.16,.03,0,0-.02,0-.02,0-.12,.02-.21,.04-.33,.06,0,0-.01,0-.02,0-.05,0-.11,.02-.16,.03h0c-.06,.01-.11,.02-.17,.03,0,0,0,0-.01,0-.05,0-.1,.02-.15,.03,0,0-.02,0-.02,0-.11,.02-.21,.04-.32,.06,0,0-.02,0-.03,0-.11,.02-.22,.04-.32,.06,0,0-.01,0-.02,0-.04,0-.1,.02-.15,.03,0,0-.02,0-.02,0-.06,.01-.1,.02-.16,.03,0,0,0,0-.01,0-.05,0-.1,.02-.15,.03-.01,0-.02,0-.03,0-.1,.02-.22,.04-.32,.06,0,0-.02,0-.03,0-.05,0-.1,.02-.15,.03,0,0,0,0-.01,0-.06,.01-.11,.02-.16,.03,0,0-.01,0-.02,0-.04,0-.1,.02-.14,.03,0,0-.01,0-.02,0-.06,.01-.11,.02-.16,.03,0,0,0,0,0,0-.05,.01-.11,.02-.16,.03,0,0-.02,0-.03,0-.05,.01-.11,.02-.16,.03h0c-.05,.01-.11,.02-.16,.03-.01,0-.02,0-.03,0-.04,0-.09,.02-.13,.03-.01,0-.02,0-.03,0-.05,.01-.11,.02-.16,.03,0,0-.01,0-.02,0-.04,0-.1,.02-.14,.03-.01,0-.02,0-.03,0-.1,.02-.21,.04-.31,.07-.01,0-.02,0-.03,0-.05,.01-.09,.02-.14,.03,0,0,0,0-.01,0-.06,.01-.1,.02-.16,.03,0,0-.02,0-.02,0-.04,0-.1,.02-.14,.03,0,0-.02,0-.02,0-.06,.01-.1,.02-.16,.03,0,0,0,0,0,0-.05,.01-.11,.02-.16,.03,0,0-.02,0-.03,0-.05,.01-.11,.02-.16,.03,0,0,0,0,0,0-.06,.01-.1,.02-.16,.03,0,0-.02,0-.02,0-.04,0-.1,.02-.14,.03,0,0-.01,0-.02,0-.06,.01-.11,.02-.16,.03,0,0,0,0,0,0-.05,.01-.1,.02-.15,.03-.01,0-.02,0-.03,0-.1,.02-.22,.05-.32,.07-.01,0-.02,0-.03,0-.05,.01-.1,.02-.15,.03,0,0,0,0,0,0-.06,.01-.11,.02-.16,.04,0,0-.01,0-.02,0-.04,0-.1,.02-.15,.03,0,0-.01,0-.02,0-.11,.02-.22,.05-.32,.07,0,0-.02,0-.02,0-.1,.02-.22,.05-.32,.07,0,0-.02,0-.03,0-.04,0-.09,.02-.13,.03,0,0-.02,0-.03,0-.06,.01-.1,.02-.16,.04,0,0,0,0-.01,0-.05,.01-.1,.02-.15,.03-.01,0-.02,0-.03,0-.1,.02-.21,.05-.31,.07-.01,0-.02,0-.04,0-.04,0-.09,.02-.14,.03,0,0-.01,0-.02,0-.06,.01-.1,.02-.16,.04-.01,0-.02,0-.03,0-.04,0-.09,.02-.13,.03-.01,0-.02,0-.04,0-.05,.01-.1,.02-.15,.04,0,0,0,0-.01,0-.04,0-.1,.02-.14,.03-.01,0-.03,0-.04,0-.04,0-.1,.02-.14,.03,0,0-.01,0-.02,0-.05,.01-.1,.02-.15,.04-.01,0-.02,0-.03,0-.04,0-.08,.02-.13,.03-.01,0-.02,0-.03,0-.06,.01-.1,.02-.15,.04,0,0-.01,0-.02,0-.04,0-.09,.02-.14,.03-.01,0-.02,0-.03,0-.1,.02-.21,.05-.31,.07-.01,0-.02,0-.04,0-.04,.01-.09,.02-.13,.03,0,0-.01,0-.02,0-.06,.01-.1,.02-.16,.04,0,0-.02,0-.03,0-.04,.01-.09,.02-.13,.03,0,0-.02,0-.03,0-.05,.01-.11,.03-.16,.04,0,0-.01,0-.02,0-.04,.01-.1,.02-.14,.03-.01,0-.03,0-.04,0-.05,.01-.09,.02-.14,.03,0,0,0,0-.01,0-.05,.01-.1,.02-.15,.04-.01,0-.03,0-.04,.01-.04,.01-.08,.02-.12,.03-.01,0-.03,0-.04,0-.05,.01-.1,.02-.15,.04,0,0-.02,0-.03,0-.04,.01-.08,.02-.12,.03-.01,0-.03,0-.04,.01-.05,.01-.1,.02-.15,.04h0s-.1,.03-.15,.04c-.01,0-.03,0-.04,.01-.04,.01-.08,.02-.13,.03,0,0-.02,0-.03,0-.05,.01-.1,.03-.15,.04-.01,0-.02,0-.03,0-.04,.01-.09,.02-.13,.03h-.03s-.1,.03-.15,.05c0,0-.01,0-.02,0-.04,.01-.09,.02-.14,.03-.01,0-.02,0-.04,0-.05,.01-.09,.02-.14,.04,0,0,0,0-.01,0-.05,.01-.1,.03-.15,.04-.01,0-.02,0-.03,0-.04,.01-.08,.02-.13,.03-.01,0-.02,0-.03,0-.06,.01-.1,.02-.15,.04,0,0-.02,0-.03,0-.04,.01-.08,.02-.12,.03-.01,0-.03,0-.04,.01-.05,.01-.1,.03-.15,.04,0,0,0,0,0,0-.05,.01-.09,.02-.14,.04-.02,0-.03,0-.05,.01-.04,.01-.07,.02-.12,.03-.01,0-.02,0-.03,0-.05,.01-.1,.03-.15,.04-.01,0-.03,0-.04,.01-.04,.01-.07,.02-.11,.03-.01,0-.03,0-.05,.01-.05,.01-.1,.02-.14,.04,0,0-.02,0-.03,0-.04,.01-.08,.02-.12,.03-.02,0-.03,0-.05,.01-.04,.01-.08,.02-.12,.03,0,0-.02,0-.03,0-.05,.01-.1,.03-.15,.04-.01,0-.03,0-.04,.01-.04,.01-.07,.02-.11,.03-.01,0-.03,0-.04,.01-.04,.01-.1,.03-.14,.04-.01,0-.03,0-.04,.01-.04,.01-.07,.02-.11,.03-.01,0-.03,0-.05,.01-.05,.01-.09,.02-.14,.04,0,0-.02,0-.02,0-.04,.01-.09,.02-.13,.03-.02,0-.03,0-.05,.01-.04,.01-.07,.02-.12,.03,0,0-.02,0-.03,0-.05,.01-.1,.03-.15,.04-.01,0-.03,0-.04,.01-.04,.01-.07,.02-.11,.03-.02,0-.03,0-.05,.01-.05,.01-.09,.02-.14,.04-.01,0-.03,0-.04,.01-.03,0-.07,.02-.11,.03-.02,0-.03,0-.05,.01-.04,.01-.07,.02-.12,.03-.01,0-.02,0-.03,0-.05,.01-.1,.03-.14,.04-.01,0-.03,0-.04,.01-.03,0-.07,.02-.11,.03-.02,0-.03,0-.05,.01-.04,.01-.1,.03-.14,.04-.01,0-.03,0-.04,.01-.03,0-.07,.02-.11,.03-.02,0-.04,0-.05,.02-.04,.01-.08,.02-.12,.03-.01,0-.03,0-.04,.01-.04,.01-.07,.02-.11,.03-.02,0-.04,.01-.06,.02-.03,0-.07,.02-.1,.03-.02,0-.03,0-.05,.01-.04,.01-.09,.03-.14,.04-.02,0-.04,.01-.05,.02-.03,0-.07,.02-.1,.03-.02,0-.04,.01-.05,.02-.04,.01-.09,.03-.13,.04-.02,0-.04,.01-.06,.02-.03,0-.06,.02-.1,.03-.02,0-.04,.01-.06,.02-.03,0-.07,.02-.11,.03-.01,0-.03,0-.04,.01-.05,.01-.09,.02-.13,.04-.02,0-.04,.01-.06,.02-.03,0-.06,.02-.09,.02-.02,0-.04,.01-.06,.02-.04,.01-.09,.03-.13,.04-.02,0-.04,.01-.06,.02-.03,0-.06,.02-.09,.03-.02,0-.04,.01-.06,.02-.04,.01-.07,.02-.11,.03-.02,0-.04,.01-.06,.02-.03,0-.07,.02-.11,.03-.02,0-.04,.01-.06,.02-.03,0-.06,.02-.09,.03-.02,0-.04,.01-.06,.02-.04,.01-.09,.03-.13,.04-.02,0-.04,.01-.06,.02-.03,0-.06,.02-.08,.02-.02,0-.04,.01-.07,.02-.03,.01-.07,.02-.11,.03-.03,0-.05,.02-.08,.02-.03,0-.06,.02-.09,.02-.02,0-.04,.01-.06,.02-.01,0-.01,0-.03,0l11.77,40.32c16.6-4.84,33.89-7.3,51.39-7.3V0h0ZM103.79,35.4c-.12,.08-.23,.15-.35,.23h0c-.14,.09-.28,.18-.42,.27,0,0,0,0,0,0-.05,.03-.09,.06-.14,.09,0,0,0,0,0,0-.09,.06-.18,.12-.27,.18,0,0-.01,0-.02,.01-.04,.03-.08,.05-.12,.08,0,0,0,0,0,0-.05,.03-.09,.06-.14,.09h0s-.09,.06-.13,.09c0,0-.02,0-.02,.01-.04,.02-.09,.06-.12,.08,0,0,0,0-.01,0-.05,.03-.09,.06-.13,.09,0,0-.01,0-.02,.01-.04,.02-.07,.05-.11,.07-.01,0-.02,.02-.03,.02-.04,.02-.08,.05-.11,.07,0,0-.01,0-.02,.01-.04,.03-.08,.06-.13,.08-.01,0-.02,.02-.04,.02-.04,.02-.06,.04-.1,.06-.01,0-.02,.01-.03,.02-.04,.02-.08,.05-.12,.08,0,0-.01,0-.01,0-.04,.03-.08,.06-.12,.08-.01,0-.03,.02-.04,.03-.02,.02-.06,.04-.09,.06-.02,.01-.03,.02-.05,.03-.04,.02-.08,.05-.11,.07,0,0-.02,.01-.03,.02-.04,.02-.07,.05-.11,.07-.02,.01-.03,.02-.05,.03-.02,.02-.06,.04-.08,.06-.01,0-.03,.02-.04,.03-.04,.02-.07,.05-.11,.07-.02,.01-.04,.03-.06,.04-.03,.02-.05,.03-.08,.05-.02,.01-.04,.02-.06,.04-.02,.02-.05,.03-.07,.05-.02,.01-.04,.02-.06,.04-.04,.02-.07,.05-.11,.07-.02,.01-.04,.03-.06,.04-.02,.01-.05,.03-.07,.04-.02,.01-.04,.03-.07,.04-.02,.01-.04,.03-.06,.04-.02,.01-.04,.03-.06,.04-.03,.02-.06,.04-.09,.06-.03,.02-.06,.04-.09,.06-.02,.01-.03,.02-.05,.03-.02,.02-.05,.03-.08,.05-.01,0-.03,.02-.04,.03-.09,.06-.17,.12-.26,.18-.02,.01-.03,.02-.04,.03-.03,.02-.05,.03-.08,.05-.01,0-.03,.02-.04,.03-.06,.04-.11,.07-.16,.11h-.01s-.06,.05-.08,.06c-.01,0-.02,.02-.04,.02-.03,.02-.06,.04-.08,.06,0,0-.02,.01-.02,.02-.06,.04-.12,.08-.18,.12h-.01s-.06,.05-.09,.07c-.01,0-.02,.01-.03,.02-.1,.07-.19,.13-.29,.2,0,0,0,0-.01,0-.03,.02-.06,.04-.09,.06-.01,0-.02,.01-.03,.02-.1,.07-.19,.13-.29,.2,0,0,0,0-.01,0-.03,.02-.06,.04-.09,.06,0,0-.01,.01-.02,.01-.1,.07-.2,.14-.3,.2h0s-.07,.05-.1,.07h0c-12.52,8.68-24.11,18.6-34.61,29.59h0c-.11,.12-.22,.24-.33,.36,0,.01,0,0-.02,.02-.08,.08-.15,.16-.23,.24,0,0-.02,.02-.02,.02-.02,.02-.05,.05-.07,.07,0,.01-.02,.02-.03,.03-.02,.02-.04,.04-.06,.07-.01,.02-.02,.02-.04,.04-.04,.04-.07,.08-.11,.12-.01,.02-.03,.03-.04,.04-.02,.02-.04,.04-.06,.06-.01,.02-.03,.03-.04,.04-.02,.02-.04,.04-.06,.06-.03,.03-.06,.06-.09,.09-.02,.02-.03,.04-.05,.06-.01,.02-.04,.04-.05,.06-.02,.02-.03,.03-.05,.05-.02,.02-.04,.05-.06,.07-.01,.01-.02,.03-.04,.04-.03,.03-.07,.07-.09,.1-.01,.02-.03,.03-.04,.05-.02,.02-.04,.04-.06,.06-.01,.02-.03,.03-.04,.05-.02,.03-.04,.05-.07,.07-.01,.01-.02,.02-.03,.04-.03,.04-.06,.07-.1,.1-.01,.01-.03,.03-.04,.04-.02,.02-.05,.05-.06,.07-.01,.02-.03,.03-.04,.04-.03,.03-.06,.07-.09,.1,0,0,0,0,0,0-.03,.04-.07,.07-.1,.11-.01,.01-.02,.02-.03,.03-.03,.03-.05,.05-.08,.08,0,0-.02,.02-.03,.03-.07,.07-.14,.15-.21,.23,0,0-.01,.02-.02,.02-.03,.03-.06,.07-.09,.1,0,0-.01,.01-.02,.02-.07,.08-.14,.16-.22,.23,0,0-.01,.01-.02,.02-.03,.04-.07,.07-.1,.11,0,0,0,0,0,0-.08,.08-.15,.16-.22,.24,0,0,0,0,0,0-1.2,1.31-2.37,2.62-3.54,3.95l31.63,27.63c11.46-13.12,24.7-24.53,39.34-33.91l-22.66-35.37h0ZM20.73,130.54c-.16,.34-.31,.67-.46,1.01h0c-.12,.26-.24,.52-.35,.78,0,0,0,0,0,.01-.07,.15-.13,.29-.2,.44,0,0,0,0,0,.02-.05,.11-.1,.21-.14,.32,0,0,0,.01,0,.02-.01,.03-.03,.07-.04,.1,0,0,0,.02-.01,.02-.03,.07-.06,.13-.09,.2,0,0,0,0,0,.01-.01,.03-.03,.06-.04,.1,0,.01,0,.02-.01,.03-.04,.1-.09,.2-.13,.29,0,.01-.01,.03-.02,.04-.01,.03-.03,.06-.04,.09,0,.02-.01,.03-.02,.05-.03,.06-.05,.12-.08,.17,0,0,0,.01,0,.02-.01,.03-.03,.06-.04,.09,0,.01-.02,.03-.02,.05-.01,.03-.02,.06-.04,.08,0,.01-.01,.03-.02,.05-.02,.05-.04,.1-.06,.15,0,.02-.01,.03-.02,.05-.01,.03-.02,.05-.04,.08,0,.02-.01,.03-.02,.05-.02,.05-.04,.1-.06,.15,0,.02-.01,.03-.02,.05-.01,.02-.02,.05-.03,.08,0,.02-.02,.04-.03,.06-.01,.02-.02,.05-.03,.08,0,.02-.02,.04-.03,.06-.02,.04-.04,.09-.06,.13,0,.02-.02,.04-.03,.06-.01,.03-.02,.05-.03,.08,0,.02-.02,.04-.03,.06-.01,.02-.02,.05-.03,.07-.01,.03-.03,.07-.04,.1-.01,.03-.02,.06-.04,.08,0,.02-.02,.05-.03,.07-.01,.02-.02,.05-.03,.07,0,.02-.02,.05-.03,.07-.02,.04-.03,.08-.05,.11-.01,.03-.02,.05-.03,.08-.01,.02-.02,.05-.03,.07-.01,.03-.02,.04-.03,.07,0,.02-.02,.04-.03,.07-.01,.03-.03,.07-.04,.1-.01,.03-.02,.05-.03,.08-.01,.03-.02,.05-.03,.08,0,.02-.02,.04-.03,.07-.01,.03-.02,.05-.03,.08,0,.02-.02,.04-.02,.06-.02,.04-.04,.09-.05,.12,0,.02-.02,.04-.03,.06-.01,.03-.02,.05-.03,.08,0,.02-.02,.04-.03,.06-.01,.03-.02,.05-.04,.08-.01,.03-.03,.06-.04,.1-.01,.03-.02,.05-.03,.08,0,.02-.02,.04-.03,.06-.01,.03-.03,.06-.04,.09,0,.02-.01,.03-.02,.05-.02,.04-.04,.09-.05,.13,0,.02-.02,.04-.02,.05-.01,.03-.02,.06-.04,.09,0,.02-.02,.04-.03,.06-.01,.03-.03,.07-.04,.1,0,.01-.01,.03-.02,.04-.02,.04-.04,.09-.05,.13,0,.02-.02,.04-.02,.06-.01,.03-.03,.06-.04,.09,0,.02-.01,.04-.02,.05-.02,.05-.04,.09-.05,.13,0,.01-.01,.03-.02,.04-.01,.03-.03,.07-.04,.1,0,.02-.01,.03-.02,.05-.01,.03-.03,.07-.04,.1,0,.01-.01,.03-.02,.04-.02,.05-.04,.09-.06,.13,0,.02-.01,.03-.02,.05-.01,.03-.03,.07-.04,.1,0,.02-.01,.03-.02,.05-.02,.05-.04,.09-.06,.14,0,0,0,.01,0,.02-.02,.04-.03,.08-.05,.12,0,.01-.01,.03-.02,.04-.02,.04-.03,.07-.04,.11,0,.01,0,.02-.01,.04-.02,.04-.04,.1-.06,.14,0,.01-.01,.03-.02,.04-.02,.04-.03,.06-.04,.1,0,.01-.01,.03-.02,.04-.02,.04-.04,.09-.05,.13,0,0,0,0,0,.02-.02,.05-.04,.09-.06,.14,0,.01-.01,.03-.02,.04-.02,.04-.03,.07-.04,.11,0,.01-.01,.03-.02,.04-.02,.05-.04,.09-.06,.14,0,0,0,.02,0,.02-.02,.04-.03,.08-.05,.12,0,.01-.01,.03-.02,.04-.02,.04-.03,.08-.05,.12,0,0,0,.01,0,.02-.02,.05-.04,.09-.06,.14,0,.01-.01,.03-.02,.04-.02,.04-.03,.07-.05,.11,0,.01,0,.02-.01,.03-.02,.05-.04,.1-.06,.14,0,0,0,0,0,.01-.02,.04-.04,.09-.05,.13,0,.01,0,.02-.01,.04-.02,.04-.03,.08-.05,.12,0,0,0,.02-.01,.03-.02,.05-.04,.09-.06,.14,0,0,0,.02-.01,.03-.02,.04-.03,.08-.05,.12,0,.01,0,.02-.02,.04-.04,.09-.08,.19-.11,.28,0,.01-.01,.03-.02,.04-.02,.04-.03,.07-.04,.11,0,.01,0,.02-.01,.03-.02,.05-.04,.1-.06,.14,0,0,0,.02-.01,.03-.02,.04-.03,.08-.05,.12,0,.01,0,.02-.01,.04-.02,.04-.04,.09-.05,.13,0,0,0,0,0,.02-.02,.05-.04,.1-.06,.15,0,0,0,.02-.01,.03-.02,.04-.03,.08-.05,.12,0,.01,0,.02-.01,.03-.02,.05-.04,.1-.06,.14,0,0,0,.01,0,.02-.02,.04-.03,.09-.05,.13,0,.01-.01,.03-.02,.04-.02,.04-.03,.08-.05,.12,0,0,0,.02,0,.02-.02,.05-.04,.09-.06,.15,0,0,0,.02-.01,.03-.02,.04-.03,.09-.05,.13,0,0,0,.02-.01,.03-.04,.09-.08,.2-.11,.3,0,.01,0,.02-.01,.03-.02,.04-.03,.09-.05,.13,0,0,0,.02,0,.02-.02,.05-.04,.1-.06,.15,0,0,0,.01,0,.02-.02,.04-.03,.09-.05,.13,0,.01,0,.02-.01,.03-.04,.09-.08,.2-.11,.3,0,0,0,.02-.01,.03-.02,.04-.03,.09-.05,.13,0,0,0,.02,0,.02-.02,.05-.04,.1-.06,.15,0,0,0,.01,0,.02-.02,.04-.03,.09-.05,.13,0,.01,0,.02-.01,.03-.02,.05-.03,.09-.05,.14,0,0,0,0,0,0-.02,.05-.04,.1-.06,.15,0,.01,0,.02-.01,.03-.02,.04-.03,.08-.04,.12,0,.01,0,.02-.01,.04-.02,.05-.04,.1-.05,.15h0s-.04,.1-.05,.14c0,.01,0,.02-.01,.04-.01,.04-.03,.08-.05,.12,0,0,0,.02,0,.02-.02,.05-.03,.09-.05,.15,0,0,0,.02-.01,.03-.01,.04-.03,.08-.04,.12,0,.01,0,.03-.01,.04-.02,.05-.03,.09-.05,.14,0,0,0,0,0,0-.02,.05-.04,.1-.05,.14,0,.01,0,.03-.02,.04-.01,.04-.02,.07-.04,.11,0,.01-.01,.03-.02,.04-.02,.05-.03,.09-.05,.14,0,.01,0,.02-.01,.03-.01,.04-.03,.08-.04,.12,0,.01,0,.03-.02,.04-.01,.04-.03,.09-.05,.13,0,0,0,0,0,.01-.02,.05-.04,.1-.05,.15,0,.01,0,.02-.01,.04-.01,.04-.03,.08-.04,.12,0,0,0,.02-.01,.03-.02,.05-.04,.1-.05,.15,0,0,0,0,0,0-.02,.05-.03,.09-.05,.14,0,.01,0,.02-.01,.04-.01,.04-.03,.09-.05,.13,0,0,0,.02,0,.02-.02,.05-.04,.1-.05,.15,0,.01,0,.02-.01,.03-.01,.04-.03,.08-.04,.12,0,.01,0,.03-.01,.04-.02,.05-.03,.09-.05,.14,0,0,0,.01,0,.02-.01,.04-.03,.09-.05,.13,0,.02-.01,.03-.02,.05-.01,.04-.02,.07-.04,.11,0,.01,0,.02-.01,.04-.02,.05-.03,.09-.05,.14,0,.01,0,.03-.01,.04-.01,.04-.02,.06-.04,.1,0,.02-.01,.03-.02,.05-.01,.04-.02,.07-.04,.11,0,.01,0,.02-.01,.03-.02,.05-.03,.09-.05,.14,0,.02-.01,.03-.02,.05-.01,.03-.02,.07-.04,.1,0,.01-.01,.03-.02,.05-.02,.05-.03,.1-.05,.14,0,0,0,.02,0,.02-.01,.04-.03,.08-.04,.12,0,.02-.01,.03-.02,.05-.01,.04-.02,.07-.04,.11,0,.01,0,.02-.01,.04-.02,.05-.03,.09-.05,.14,0,.01-.01,.03-.01,.04-.01,.04-.02,.07-.04,.11,0,.01-.01,.03-.01,.04-.02,.05-.03,.09-.05,.14,0,.01,0,.02-.01,.03-.01,.04-.03,.08-.04,.12,0,.02-.01,.03-.02,.05-.01,.03-.02,.07-.04,.1,0,.01,0,.03-.01,.04-.01,.04-.03,.1-.05,.14,0,.01,0,.03-.01,.04-.01,.03-.02,.07-.04,.1,0,.02-.01,.04-.02,.05-.01,.04-.03,.08-.04,.12,0,0,0,.01,0,.02-.02,.05-.03,.09-.05,.14,0,.02-.01,.03-.02,.05-.01,.04-.02,.06-.04,.1,0,.01-.01,.03-.02,.05-.01,.04-.03,.09-.05,.14,0,.02-.01,.03-.02,.05-.01,.03-.02,.06-.03,.09,0,.02-.01,.04-.02,.06-.01,.03-.02,.07-.03,.1,0,.02-.01,.03-.02,.05-.01,.04-.03,.09-.05,.13,0,.02-.01,.03-.02,.05,0,.03-.02,.07-.03,.09,0,.02-.01,.04-.02,.06-.01,.04-.03,.08-.04,.13,0,.02-.01,.04-.02,.06-.01,.03-.02,.06-.03,.1,0,.02-.01,.04-.02,.06,0,.03-.02,.06-.03,.09,0,.02-.01,.04-.02,.05-.01,.04-.03,.09-.04,.13,0,.02-.01,.04-.02,.06,0,.03-.02,.06-.03,.09,0,.02-.01,.04-.02,.06-.01,.04-.02,.07-.04,.11,0,.02-.01,.04-.02,.06-.01,.04-.02,.07-.04,.11,0,.02-.01,.04-.02,.06,0,.03-.02,.06-.03,.08,0,.02-.01,.04-.02,.06-.01,.04-.03,.09-.04,.13,0,.02-.01,.04-.02,.06,0,.03-.02,.05-.03,.08,0,.02-.02,.05-.02,.07,0,.03-.02,.06-.03,.08,0,.03-.02,.06-.03,.09-.01,.03-.02,.07-.03,.1,0,.02-.01,.05-.02,.07,0,.03-.01,.04-.02,.07,0,.02-.02,.05-.02,.07-.01,.03-.02,.06-.03,.09-.01,.03-.02,.07-.03,.1,0,.02-.02,.06-.03,.08,0,.02-.02,.05-.02,.07,0,.02-.02,.05-.02,.07,0,.03-.02,.06-.03,.09-.01,.03-.02,.07-.03,.11,0,.02-.01,.04-.02,.07,0,.03-.02,.05-.03,.08,0,.02-.01,.05-.02,.07,0,.03-.02,.05-.03,.08-.01,.04-.02,.08-.04,.12,0,.02-.02,.05-.02,.07,0,.03-.02,.05-.02,.08,0,.02-.01,.05-.02,.07,0,.02-.02,.05-.02,.08-.01,.04-.03,.08-.04,.12,0,.03-.02,.05-.02,.08,0,.02-.01,.05-.02,.07,0,.02-.02,.05-.02,.08,0,.02-.01,.05-.02,.07-.01,.05-.03,.09-.04,.14,0,.02-.01,.04-.02,.06,0,.03-.02,.05-.02,.08,0,.02-.01,.04-.02,.06,0,.03-.02,.05-.03,.08,0,.02-.01,.04-.02,.06-.02,.05-.03,.1-.05,.15,0,.02-.01,.04-.02,.06,0,.03-.02,.06-.03,.09,0,.02-.01,.03-.02,.06-.01,.04-.03,.09-.04,.13,0,.03-.01,.05-.02,.07,0,.03-.02,.05-.03,.08,0,.02-.01,.04-.02,.06,0,.03-.02,.05-.03,.08,0,.01-.01,.04-.02,.06-.02,.05-.03,.1-.05,.15,0,.02-.01,.03-.02,.05,0,.03-.02,.06-.03,.08,0,.02-.01,.04-.02,.06-.01,.04-.02,.08-.04,.12,0,.03-.02,.06-.03,.08,0,.03-.02,.05-.03,.08,0,.02-.01,.04-.02,.06,0,.03-.02,.06-.03,.09,0,.02-.01,.04-.02,.06-.01,.05-.03,.09-.04,.14,0,.02-.01,.04-.02,.07,0,.03-.02,.05-.02,.08,0,.02-.01,.04-.02,.06,0,.03-.02,.05-.02,.08,0,.03-.02,.06-.03,.09-.01,.04-.02,.07-.03,.11,0,.02-.02,.05-.02,.07,0,.02-.02,.05-.02,.08,0,.02-.01,.04-.02,.06-.01,.05-.03,.1-.04,.15,0,.01-.01,.04-.02,.05,0,.03-.02,.06-.03,.09,0,.01-.01,.04-.02,.05,0,.03-.02,.06-.03,.09,0,0,0,.03-.01,.04-.02,.06-.03,.11-.05,.17,0,.02,0,.03-.02,.05,0,.03-.02,.06-.03,.08,0,.02-.01,.04-.02,.06-.02,.06-.04,.13-.06,.19,0,0,0,0,0,.01,0,.03-.02,.06-.03,.09,0,.01-.01,.04-.01,.05,0,.03-.02,.06-.03,.09,0,.01-.01,.03-.01,.05-.02,.06-.03,.11-.05,.17,0,.01,0,.02-.01,.04,0,.03-.02,.06-.03,.09,0,.01,0,.03-.01,.04-.03,.1-.06,.21-.09,.31,0,0,0,.03-.01,.04,0,.03-.02,.06-.03,.1,0,.01,0,.02-.01,.04-.02,.07-.04,.13-.06,.2,0,0,0,0,0,.02,0,.03-.02,.07-.03,.1v.04s-.03,.06-.04,.1v.02c-.02,.07-.04,.13-.06,.2,0,.01,0,.02-.01,.04,0,.03-.02,.07-.03,.1,0,.01,0,.02,0,.03-.03,.11-.06,.21-.09,.32,0,.01,0,.02-.01,.04,0,.03-.02,.07-.03,.1,0,0,0,.02,0,.03-.02,.06-.04,.12-.05,.19,0,.01,0,.03-.01,.04,0,.03-.02,.06-.03,.1,0,.01,0,.03-.01,.04-.03,.1-.06,.21-.09,.31,0,.01,0,.03-.01,.04,0,.03-.02,.06-.03,.1,0,.01,0,.02,0,.03-.02,.07-.04,.13-.05,.2,0,0,0,.02,0,.02,0,.03-.02,.06-.03,.1,0,.01,0,.03-.01,.04-.03,.11-.06,.21-.09,.32,0,0,0,.02,0,.03,0,.03-.02,.07-.03,.1,0,.01,0,.02,0,.03-.03,.11-.06,.21-.09,.32,0,.01,0,.02,0,.03,0,.03-.02,.07-.03,.1,0,0,0,.01,0,.02-.02,.07-.04,.14-.06,.2,0,.01,0,.02,0,.03,0,.03-.02,.07-.03,.1,0,0,0,.03-.01,.04-.03,.1-.06,.21-.08,.32,0,.01,0,.02-.01,.04,0,.03-.02,.07-.03,.1,0,0,0,.02,0,.03-.02,.06-.03,.13-.05,.19,0,0,0,.02,0,.03,0,.03-.02,.07-.03,.1,0,.01,0,.02,0,.03-.03,.11-.06,.21-.09,.32,0,0,0,.03,0,.03,0,.03-.02,.07-.03,.1,0,.01,0,.02,0,.03-.02,.07-.04,.13-.05,.2,0,0,0,.02,0,.03,0,.03-.02,.06-.03,.1,0,.01,0,.03-.01,.04-.03,.11-.06,.21-.08,.32,0,.01,0,.02,0,.03,0,.04-.02,.07-.03,.1,0,0,0,.02,0,.03-.03,.11-.06,.22-.08,.33,0,0,0,.02,0,.03,0,.04-.02,.07-.03,.11h0c-.02,.08-.04,.16-.06,.23,0,0,0,0,0,.01,0,.03-.02,.07-.03,.11,0,0,0,.03,0,.03-.03,.11-.05,.21-.08,.32,0,0,0,.03-.01,.04,0,.03-.02,.06-.02,.1,0,.01,0,.03,0,.04-.02,.07-.03,.13-.05,.2,0,0,0,0,0,.02,0,.03-.02,.07-.03,.1,0,.01,0,.02,0,.03,0,.03-.02,.07-.03,.1h0c-.02,.07-.04,.15-.05,.22,0,.01,0,.02,0,.04,0,.03-.02,.07-.02,.1,0,.01,0,.02,0,.04-.03,.11-.05,.21-.08,.32,0,.01,0,.03-.01,.04,0,.03-.02,.07-.02,.1h0c-.02,.08-.04,.16-.05,.23,0,0,0,.02,0,.02,0,.04-.02,.07-.03,.11,0,0,0,.02,0,.03-.03,.11-.05,.21-.08,.32,0,.01,0,.03-.01,.05,0,.03-.02,.06-.02,.1,0,.01,0,.03,0,.04-.01,.06-.03,.12-.04,.18,0,.01,0,.03,0,.04,0,.03-.02,.06-.02,.1,0,.01,0,.03-.01,.04-.02,.1-.05,.21-.07,.31,0,.02,0,.03-.01,.05,0,.03-.02,.06-.02,.1,0,.01,0,.02,0,.04-.02,.07-.03,.14-.05,.21h0s-.02,.07-.02,.11c0,.01,0,.03-.01,.04,0,.03-.02,.07-.02,.1h0c-.02,.08-.03,.15-.05,.22,0,.01,0,.02,0,.04,0,.03-.01,.06-.02,.09,0,.02,0,.03-.01,.05-.02,.1-.05,.21-.07,.31,0,.01,0,.03-.01,.04,0,.03-.01,.06-.02,.1,0,.01,0,.03-.01,.04-.01,.06-.03,.11-.04,.17,0,.01,0,.04-.01,.05,0,.03-.01,.06-.02,.09,0,.02,0,.03-.01,.05,0,.03-.01,.06-.02,.09,0,.01,0,.03-.01,.05-.01,.05-.03,.11-.04,.17,0,.02,0,.04-.01,.06,0,.03-.01,.06-.02,.09,0,.02,0,.04-.01,.06-.01,.04-.02,.09-.03,.13,0,.03-.01,.05-.02,.08,0,.03-.01,.05-.02,.08,0,.03,0,.04-.02,.07,0,.03-.01,.05-.02,.08,0,.04-.02,.07-.02,.11,0,.03-.01,.06-.02,.09,0,.02-.01,.06-.02,.08,0,.02-.01,.05-.02,.07,0,.03-.01,.05-.02,.08,0,.03-.01,.05-.02,.08,0,.04-.02,.08-.03,.12,0,.02-.01,.05-.02,.07,0,.03-.01,.05-.02,.08,0,.02-.01,.05-.02,.07,0,.04-.01,.06-.02,.1,0,.03-.01,.06-.02,.09,0,.04-.01,.06-.02,.09,0,.02-.01,.05-.02,.07,0,.03-.01,.05-.02,.08,0,.02-.01,.05-.02,.07,0,.04-.02,.09-.03,.13,0,.02,0,.04-.01,.07,0,.03-.01,.05-.02,.08,0,.02-.01,.05-.02,.07,0,.03-.01,.06-.02,.09,0,.03-.01,.06-.02,.09,0,.04-.01,.07-.02,.1,0,.02,0,.04-.01,.07,0,.03-.01,.07-.02,.09,0,.02,0,.04-.01,.06,0,.04-.02,.1-.03,.14,0,.02,0,.04-.01,.06,0,.03-.01,.06-.02,.09,0,.02,0,.04-.01,.06,0,.04-.01,.06-.02,.1,0,.02,0,.04-.01,.06,0,.04-.02,.09-.03,.13,0,.02,0,.04-.01,.06,0,.03-.01,.07-.02,.1,0,.02,0,.04-.01,.06-.01,.05-.02,.09-.03,.14,0,.01,0,.03,0,.04,0,.04-.02,.07-.02,.11,0,.02,0,.04-.01,.06,0,.03-.02,.07-.02,.1,0,.02,0,.03,0,.05,0,.04-.02,.1-.03,.14,0,.02,0,.03-.01,.05,0,.04-.01,.07-.02,.1,0,.02,0,.04-.01,.05,0,.04-.02,.09-.03,.13,0,0,0,.02,0,.03,0,.04-.02,.1-.03,.14,0,.02,0,.03-.01,.05,0,.04-.01,.07-.02,.11,0,.01,0,.03,0,.04-.01,.05-.02,.1-.03,.15,0,.01,0,.02,0,.03,0,.04-.02,.08-.02,.12,0,.02,0,.03,0,.05,0,.04-.02,.1-.03,.14,0,0,0,0,0,.01-.01,.05-.02,.11-.03,.16,0,.01,0,.02,0,.04,0,.04-.02,.08-.03,.13,0,.01,0,.02,0,.03,0,.05-.02,.11-.03,.16,0,0,0,.01,0,.02,0,.04-.02,.1-.03,.14,0,.01,0,.02,0,.03,0,.05-.02,.1-.03,.15,0,0,0,0,0,.01-.01,.06-.02,.11-.03,.16,0,0,0,.01,0,.02,0,.05-.02,.1-.03,.15,0,0,0,.01,0,.02-.02,.11-.04,.21-.06,.33,0,0,0,.01,0,.02,0,.05-.02,.11-.03,.16,0,0,0,0,0,0-.01,.06-.02,.11-.03,.17h0c-.01,.06-.02,.11-.03,.17,0,0,0,0,0,.01-.02,.11-.04,.22-.06,.34h0c-.55,2.89-1.04,5.8-1.47,8.73l41.54,6.17c2.55-17.18,7.55-33.88,14.84-49.63l-38.11-17.65h0Zm22.93,119.27l-41.62,5.63c1.15,8.53,2.79,16.91,4.87,25.11,0,0,0,0,0,0,.03,.11,.06,.22,.09,.33,0,0,0,0,0,0,.01,.06,.03,.11,.04,.17h0c.03,.11,.06,.22,.09,.33,0,0,0,0,0,.01,.03,.11,.06,.22,.09,.33,0,0,0,0,0,0,.01,.06,.03,.1,.04,.16,0,0,0,0,0,.01,.03,.11,.06,.21,.08,.32,0,0,0,.01,0,.02,.03,.11,.06,.21,.09,.32,0,0,0,0,0,.01,.01,.06,.03,.1,.04,.15,0,0,0,.01,0,.02,.03,.11,.06,.21,.09,.32,0,0,0,0,0,.01,.01,.06,.03,.1,.04,.16,0,0,0,0,0,0,.03,.1,.06,.22,.09,.32,0,0,0,.01,0,.02,.03,.1,.06,.21,.08,.31,0,0,0,.02,0,.03,.01,.04,.03,.1,.04,.14,0,0,0,.01,0,.02,.02,.06,.03,.11,.04,.16,0,0,0,0,0,0,.01,.05,.03,.1,.04,.15,0,0,0,.02,0,.03,.01,.05,.03,.1,.04,.15,0,0,0,0,0,0,.02,.06,.03,.1,.04,.16,0,.01,0,.02,0,.03,.01,.04,.02,.09,.04,.13,0,0,0,.02,0,.03,.03,.1,.06,.21,.08,.31,0,.01,0,.03,.01,.04,.01,.04,.02,.09,.04,.13,0,0,0,.01,0,.02,.02,.06,.03,.1,.04,.15,0,.01,0,.02,0,.03,.01,.04,.02,.08,.04,.13,0,.01,0,.02,0,.04,.03,.1,.06,.21,.09,.31,0,.01,0,.02,0,.03,.01,.04,.02,.08,.04,.12,0,.01,0,.02,0,.03,.02,.06,.03,.09,.04,.15,0,.01,0,.02,0,.03,.01,.04,.02,.08,.03,.12,0,.02,0,.03,.01,.05,.01,.04,.03,.09,.04,.13,0,0,0,0,0,.01,.01,.05,.03,.1,.04,.15,0,.01,0,.03,.01,.04,.01,.04,.02,.08,.04,.12,0,.01,0,.02,0,.03,.01,.05,.03,.1,.04,.15,0,0,0,.02,0,.03,.01,.04,.02,.08,.04,.12,0,.01,0,.03,.01,.04,.01,.04,.02,.08,.04,.12,0,.01,0,.02,0,.03,.01,.05,.03,.09,.04,.14,0,.01,0,.03,.01,.05,0,.03,.02,.08,.03,.1,0,.02,0,.03,.01,.05,.01,.05,.03,.09,.04,.14,0,.01,0,.02,.01,.03,.01,.04,.02,.07,.03,.11,0,.02,.01,.04,.02,.05,.01,.04,.02,.07,.03,.11,0,.01,0,.03,.01,.04,.01,.04,.03,.1,.04,.14,0,.02,0,.03,.01,.05,.01,.03,.02,.07,.03,.1,0,.02,0,.03,.01,.05,.01,.05,.03,.09,.04,.14,0,0,0,.01,0,.02,.01,.04,.03,.09,.04,.13,0,.02,.01,.04,.02,.06,0,.03,.02,.07,.03,.09,0,.02,.01,.04,.02,.06,.01,.04,.03,.09,.04,.14,0,.02,.01,.03,.01,.05,.01,.03,.02,.06,.03,.1,0,.02,.01,.04,.02,.06,.01,.04,.02,.07,.03,.11,0,.01,0,.03,.01,.04,.01,.05,.03,.09,.04,.14,0,.02,.01,.04,.02,.05,0,.03,.02,.07,.03,.1,0,.02,.01,.04,.02,.05,.01,.04,.03,.1,.04,.14,0,.02,.01,.03,.02,.05,.01,.03,.02,.06,.03,.1,0,.02,.01,.04,.02,.06,.01,.03,.02,.06,.03,.09,0,.02,.01,.04,.02,.05,.01,.04,.03,.09,.04,.13,0,.02,.01,.04,.02,.06,0,.03,.02,.07,.03,.1,0,.02,.01,.04,.02,.06,.01,.04,.03,.09,.04,.13,0,.02,.01,.04,.02,.06,.01,.03,.02,.06,.03,.09,0,.02,.01,.04,.02,.07,0,.03,.02,.06,.03,.09,0,.02,.01,.04,.02,.06,.01,.04,.03,.09,.04,.13,0,.02,.01,.04,.02,.07,0,.03,.02,.05,.02,.08,0,.02,.01,.05,.02,.07,0,.03,.02,.06,.03,.09,.01,.04,.02,.07,.03,.11,0,.03,.02,.05,.03,.08,0,.02,.02,.05,.02,.07,0,.03,.01,.05,.02,.07,0,.02,.01,.05,.02,.07,.01,.04,.03,.09,.04,.13,0,.02,.01,.04,.02,.07,0,.03,.02,.05,.02,.08,0,.02,.01,.05,.02,.07,0,.03,.02,.06,.03,.09,0,.03,.02,.05,.02,.08,.01,.03,.02,.07,.03,.11,0,.02,.01,.05,.02,.07,0,.03,.01,.05,.02,.07,0,.02,.02,.05,.02,.07,.01,.03,.02,.07,.03,.1,.01,.03,.02,.06,.03,.09,0,.02,.02,.05,.02,.07,0,.02,.02,.05,.02,.07,0,.02,.02,.06,.02,.08,0,.03,.02,.06,.03,.08,.01,.03,.02,.08,.04,.11,0,.02,.01,.04,.02,.07,0,.03,.01,.05,.02,.07,0,.02,.02,.05,.02,.07,.01,.03,.02,.06,.03,.09,0,.03,.02,.06,.03,.09,0,.03,.02,.06,.03,.09,0,.02,.01,.05,.02,.07,0,.03,.02,.05,.03,.08,0,.02,.01,.04,.02,.06,.01,.04,.03,.09,.04,.13,0,.02,.01,.04,.02,.06,0,.03,.02,.06,.03,.08,0,.02,.01,.04,.02,.06,.01,.03,.02,.06,.03,.09,.01,.03,.02,.06,.03,.09,.01,.03,.02,.06,.03,.09,0,.02,.01,.04,.02,.07,0,.03,.02,.05,.03,.08,0,.02,.01,.04,.02,.07,.01,.04,.03,.09,.04,.13,0,.02,.01,.04,.02,.06,0,.03,.02,.05,.03,.08,0,.02,.01,.04,.02,.07,.01,.03,.02,.05,.03,.09,.01,.03,.02,.06,.03,.09,.01,.03,.02,.06,.03,.09,0,.02,.02,.05,.02,.07,0,.03,.02,.05,.02,.07,0,.02,.02,.05,.02,.07,.01,.03,.02,.07,.04,.11,0,.03,.02,.06,.03,.08,0,.03,.02,.05,.03,.08,0,.02,.01,.04,.02,.07,0,.03,.02,.06,.03,.08,0,.02,.01,.04,.02,.06,.01,.04,.03,.09,.04,.13,0,.02,.01,.04,.02,.07,0,.03,.02,.05,.03,.08,0,.02,.02,.05,.02,.07,.01,.03,.02,.06,.03,.09,.01,.03,.02,.07,.03,.1,0,.02,.02,.05,.02,.07,0,.03,.02,.05,.03,.08,0,.02,.02,.05,.02,.07,0,.02,.02,.05,.02,.07,.01,.04,.03,.09,.04,.13,0,.02,.01,.04,.02,.07,0,.03,.02,.05,.03,.08,0,.02,.02,.04,.02,.07,0,.03,.02,.06,.03,.08,.01,.03,.02,.07,.04,.1,0,.03,.02,.06,.03,.08,0,.02,.02,.05,.02,.07,0,.03,.02,.05,.03,.08,0,.02,.02,.04,.02,.06,.01,.04,.03,.09,.04,.13,0,.02,.01,.04,.02,.06,0,.03,.02,.06,.03,.09,0,.02,.01,.04,.02,.06,.01,.03,.02,.06,.03,.09,0,.02,.02,.04,.02,.07,.01,.04,.03,.07,.04,.11,0,.02,.01,.04,.02,.06,0,.03,.02,.06,.03,.08,0,.02,.02,.04,.02,.06,.01,.04,.03,.07,.04,.11,0,.03,.02,.05,.03,.08,0,.03,.02,.05,.03,.08,0,.02,.01,.04,.02,.06,0,.03,.02,.06,.03,.09,0,.02,.01,.04,.02,.05,.01,.04,.03,.09,.05,.13,0,.02,.01,.04,.02,.06,0,.03,.02,.05,.03,.08,0,.02,.02,.04,.02,.06,.01,.03,.02,.07,.04,.1,0,.03,.02,.05,.03,.08,.01,.03,.02,.06,.03,.09,0,.02,.01,.04,.02,.06,0,.03,.02,.07,.03,.1,0,.02,.01,.03,.02,.05,.01,.04,.03,.09,.05,.13,0,.02,.01,.04,.02,.06,0,.03,.02,.06,.03,.09,0,.02,.01,.04,.02,.06,.01,.04,.03,.08,.04,.12,0,.01,.01,.03,.02,.04,.01,.04,.03,.07,.04,.11,0,.02,.01,.04,.02,.06,0,.03,.02,.07,.03,.09,0,.02,.01,.03,.02,.05,.01,.04,.03,.1,.05,.14,0,.01,0,.03,.01,.04,.01,.04,.02,.07,.04,.11,0,.02,.01,.03,.02,.05,.01,.04,.03,.08,.04,.12,0,0,0,.01,0,.02,.02,.05,.03,.09,.05,.14,0,.02,.01,.03,.02,.05,.01,.04,.02,.06,.04,.1,0,.01,.01,.03,.02,.04,.02,.05,.03,.09,.05,.14,0,.01,0,.02,.01,.03,.01,.04,.03,.07,.04,.11,0,.02,.01,.03,.02,.05,.01,.04,.02,.07,.04,.11,0,.01,0,.03,.01,.04,.02,.05,.03,.09,.05,.14,0,.01,.01,.03,.02,.04,.01,.04,.02,.06,.04,.1,0,.02,.01,.03,.02,.05,.02,.05,.03,.09,.05,.14,0,0,0,.02,0,.02,.01,.04,.03,.08,.04,.12,0,.01,.01,.03,.02,.05,.01,.04,.03,.07,.04,.11,0,.01,0,.02,.01,.03,.02,.05,.04,.1,.05,.14,0,.01,0,.02,.01,.03,.01,.04,.03,.07,.04,.11,0,.01,0,.03,.01,.04,.02,.05,.04,.1,.05,.14,0,0,0,0,0,0,.02,.05,.03,.09,.05,.14,0,.01,0,.02,.01,.04,.02,.04,.03,.08,.05,.12,0,0,0,.02,0,.02,.02,.05,.04,.09,.06,.15,0,0,0,.02,0,.02,.02,.04,.03,.08,.05,.12,0,.01,0,.02,.01,.04,.04,.09,.08,.2,.11,.29,0,0,0,.02,.01,.03,.02,.04,.03,.08,.05,.12,0,0,0,.02,.01,.03,.02,.05,.04,.1,.06,.15,0,0,0,0,0,0,.02,.05,.03,.09,.05,.14,0,0,0,.02,.01,.03,.02,.05,.04,.1,.05,.14,0,0,0,0,0,0,.02,.05,.04,.1,.06,.15,0,0,0,.01,0,.01,.02,.05,.03,.09,.05,.14,0,0,0,.02,0,.02,.04,.11,.08,.2,.12,.3,0,0,0,.01,0,.02,.04,.11,.08,.2,.12,.31,0,0,0,0,0,.01,.02,.05,.03,.09,.05,.14,0,0,0,.01,0,.02,.04,.11,.08,.2,.12,.31,0,0,0,0,0,.01,.02,.05,.04,.1,.06,.15,0,0,0,0,0,0,.04,.11,.08,.2,.12,.31,0,0,0,0,0,.01,.04,.11,.08,.2,.12,.31,0,0,0,0,0,0,1.23,3.13,2.53,6.22,3.9,9.28l38.34-17.15c-7.08-15.84-11.86-32.6-14.19-49.82h0Zm41.88,93.69l-31.99,27.22c2.77,3.25,5.62,6.42,8.56,9.51,0,0,0,0,.01,.01,.12,.12,.22,.23,.34,.36,0,0,0,0,0,0,.08,.08,.15,.16,.23,.24,0,0,0,0,0,0,.04,.04,.07,.07,.11,.11,0,0,0,0,0,0,.08,.08,.15,.15,.22,.23,0,0,.01,.01,.01,.02,.03,.04,.07,.07,.1,.11,0,0,0,0,0,.01,.08,.08,.15,.15,.23,.23,0,0,0,0,.01,.01,.03,.03,.07,.07,.1,.1,0,0,0,0,.01,.01,.07,.08,.15,.15,.22,.23,0,0,.01,.01,.02,.02,.03,.04,.07,.07,.1,.11,0,0,0,0,0,0,.04,.04,.07,.08,.11,.12,0,0,0,0,0,0,.03,.04,.07,.07,.1,.1,0,0,.01,.01,.02,.02,.03,.04,.07,.07,.1,.11,0,0,0,0,0,0,.04,.04,.08,.08,.12,.12,0,0,0,0,0,0,.03,.04,.07,.07,.1,.11,0,0,.01,.01,.02,.02,.03,.04,.07,.07,.11,.11,0,0,0,0,0,0,.04,.04,.07,.08,.11,.12,0,0,0,0,.01,.02,.03,.03,.07,.07,.09,.1,0,0,.02,.02,.02,.02,.03,.03,.07,.07,.1,.1,0,0,0,0,0,0,.03,.03,.07,.08,.11,.11,0,0,.02,.02,.02,.02,.03,.03,.06,.06,.09,.09,.01,.01,.02,.02,.03,.03,.07,.07,.15,.15,.21,.22,.01,.01,.02,.02,.03,.03,.03,.03,.05,.05,.08,.08,.01,.01,.02,.02,.03,.03,.03,.03,.07,.07,.11,.11,0,0,.01,.01,.01,.01,.03,.03,.06,.06,.09,.09,.01,.01,.02,.02,.04,.04,.02,.02,.05,.05,.07,.07,.01,.01,.03,.03,.04,.04,.03,.03,.07,.07,.1,.1,0,0,.02,.02,.03,.03,.03,.03,.05,.05,.08,.08,.01,.01,.02,.02,.04,.04,.02,.02,.05,.05,.08,.08,.01,.01,.02,.02,.03,.03,.03,.03,.07,.07,.1,.1,.01,.01,.02,.02,.03,.03,.03,.03,.05,.05,.08,.08,.01,.01,.02,.02,.03,.03,.03,.03,.05,.05,.08,.08,0,0,.02,.02,.03,.03,.03,.03,.07,.07,.1,.1,.01,.01,.02,.02,.03,.03,.03,.03,.05,.05,.08,.08,.01,.01,.03,.03,.04,.04,.03,.03,.05,.05,.08,.08,0,0,.01,.01,.02,.02,.04,.03,.07,.07,.11,.1,.01,.01,.02,.02,.03,.03,.03,.03,.05,.05,.08,.08,.01,.01,.02,.02,.03,.03,.03,.03,.06,.05,.09,.08,.01,.01,.02,.02,.03,.03,.03,.03,.06,.06,.09,.09,.01,.01,.03,.03,.04,.04,.02,.02,.05,.05,.07,.07,.01,.01,.03,.03,.04,.04,.03,.03,.05,.05,.08,.08,.01,.01,.03,.03,.05,.05,.03,.02,.05,.05,.08,.07,.01,.01,.03,.03,.04,.04,.02,.02,.05,.05,.07,.07,.01,.01,.03,.02,.04,.04,.04,.03,.07,.06,.1,.1,.01,.01,.02,.02,.03,.03,.03,.02,.05,.05,.08,.07,.01,.01,.03,.03,.04,.04,.02,.02,.05,.05,.07,.07,.01,.01,.03,.03,.04,.04,.04,.03,.07,.06,.1,.1,0,0,.02,.02,.03,.03,.03,.02,.05,.05,.08,.08,.01,.01,.03,.03,.04,.04,.03,.02,.05,.05,.08,.07,.01,.01,.02,.02,.03,.03,.03,.03,.07,.07,.1,.1,.01,.01,.03,.03,.04,.04,.02,.02,.05,.05,.07,.06,.01,.01,.03,.03,.04,.04,.03,.02,.05,.05,.07,.07,.01,.01,.02,.02,.04,.04,.03,.03,.07,.07,.1,.1,.01,.01,.03,.02,.04,.04,.02,.02,.05,.05,.07,.07,.01,.01,.03,.03,.04,.04,.03,.03,.05,.05,.08,.08,0,0,.02,.02,.03,.03,.04,.03,.07,.06,.1,.1,.01,.01,.03,.03,.04,.04,.02,.02,.05,.05,.07,.07,.01,.01,.03,.03,.04,.04,.03,.02,.05,.05,.07,.07,.02,.02,.04,.04,.06,.06,.03,.02,.05,.05,.08,.08,.01,.01,.03,.02,.04,.04,.02,.02,.05,.05,.07,.07,.01,.01,.02,.02,.04,.04,.04,.03,.07,.07,.11,.1,0,0,.01,.01,.02,.02,.03,.03,.06,.05,.09,.08,.01,.01,.03,.03,.04,.04,.02,.02,.05,.05,.07,.07,.01,.01,.02,.02,.04,.03,.04,.03,.07,.07,.11,.1,0,0,.02,.02,.03,.03,.03,.02,.06,.05,.08,.08,.01,.01,.03,.03,.04,.04,.03,.02,.04,.04,.07,.07,.01,.01,.03,.03,.04,.04,.03,.03,.07,.07,.1,.1,.01,.01,.02,.02,.04,.04,.03,.02,.05,.04,.07,.07,.02,.01,.03,.03,.05,.04,.02,.02,.05,.05,.07,.07,.01,.01,.02,.02,.03,.03,.03,.03,.07,.07,.1,.1,.01,.01,.03,.03,.04,.04,.03,.02,.04,.04,.07,.07,.01,.01,.03,.03,.04,.04,.03,.02,.05,.05,.08,.07,.01,0,.02,.02,.03,.03,.04,.03,.07,.06,.1,.1,.01,.01,.03,.03,.04,.04,.02,.02,.05,.04,.07,.06,.02,.02,.03,.03,.05,.05,.03,.02,.05,.05,.08,.07,.01,.01,.02,.02,.03,.03,.04,.03,.06,.06,.1,.09,.02,.01,.03,.03,.05,.04,.02,.02,.05,.04,.07,.06,.02,.01,.03,.03,.05,.04,.03,.02,.06,.05,.08,.08,.02,.02,.03,.03,.05,.04,.03,.02,.05,.05,.08,.07,.02,.01,.03,.03,.05,.04,.02,.02,.04,.04,.07,.06,.02,.01,.03,.03,.05,.04,.03,.03,.07,.06,.1,.09,.01,.01,.02,.02,.04,.03,.03,.02,.05,.04,.07,.07,.02,.02,.03,.03,.05,.05,.02,.02,.05,.04,.07,.06,.01,.01,.03,.03,.04,.04,.04,.03,.07,.06,.1,.1,.01,.01,.02,.02,.03,.03,.03,.02,.05,.05,.08,.07,.01,.01,.03,.03,.04,.04,.03,.02,.04,.04,.07,.06,.01,.01,.03,.03,.04,.04,.03,.03,.07,.07,.1,.09,.01,.01,.03,.03,.04,.04,.02,.02,.05,.04,.07,.06,.02,.01,.03,.03,.05,.04,.02,.02,.05,.04,.07,.06,.01,.01,.03,.03,.04,.04,.03,.03,.07,.06,.1,.09,.02,.01,.03,.03,.05,.04,.02,.02,.04,.04,.06,.06,.02,.01,.03,.03,.05,.04,.03,.02,.04,.04,.07,.06,.01,.01,.03,.02,.04,.04,.04,.03,.07,.06,.1,.09,.01,.01,.03,.02,.04,.04,.02,.02,.05,.05,.07,.06,.01,.01,.03,.03,.04,.04,.03,.03,.05,.05,.09,.08,0,0,.02,.02,.03,.03,.03,.03,.07,.06,.1,.09,.01,.01,.03,.02,.04,.03,.02,.02,.05,.05,.07,.07,.01,.01,.03,.02,.04,.04,.03,.03,.06,.05,.09,.08,.01,.01,.03,.03,.04,.04,.03,.02,.06,.05,.09,.08,.01,.01,.03,.02,.04,.04,.03,.02,.05,.05,.08,.07,.01,.01,.03,.02,.04,.03,.04,.03,.07,.06,.11,.1,0,0,.01,.01,.02,.02,.03,.03,.06,.05,.09,.08,.01,.01,.02,.02,.04,.03,.03,.03,.05,.05,.08,.07,.01,0,.02,.02,.03,.03,.04,.03,.07,.07,.11,.1,0,0,.02,.02,.03,.02,.03,.03,.06,.05,.09,.08,.01,.01,.02,.02,.04,.03,.03,.03,.05,.05,.08,.07,.01,0,.02,.02,.03,.03,.04,.03,.07,.07,.11,.1,0,0,.02,.01,.02,.02,.03,.03,.06,.05,.09,.08,.01,0,.02,.02,.03,.03,.03,.03,.07,.06,.1,.09,0,0,0,0,.01,.01,.04,.03,.08,.07,.11,.1,0,0,.02,.02,.03,.03,.03,.03,.06,.05,.09,.08,.01,0,.02,.02,.03,.03,.03,.03,.07,.06,.1,.09,0,0,0,0,.01,.01,.04,.03,.08,.07,.11,.1,.01,0,.02,.02,.03,.03,.03,.03,.05,.05,.09,.08,.01,0,.02,.02,.03,.03,.07,.06,.15,.14,.23,.2,0,0,.02,.02,.03,.03,.03,.03,.06,.05,.09,.08,0,0,.02,.02,.03,.03,.04,.03,.08,.07,.11,.1,0,0,0,0,0,0,.04,.03,.07,.06,.11,.09,0,0,.02,.02,.03,.02,.03,.03,.06,.06,.1,.08,0,0,.02,.01,.02,.02,.04,.03,.08,.07,.12,.1,0,0,0,0,.01,.01,.03,.03,.07,.06,.1,.09,.01,.01,.02,.02,.04,.03,.03,.03,.06,.05,.09,.08,0,0,.02,.01,.02,.02,.04,.04,.07,.06,.12,.1,0,0,.01,0,.01,.01,.03,.03,.07,.06,.1,.09,0,0,.02,.01,.02,.02,.03,.03,.07,.06,.11,.09,0,0,0,0,.01,.01,.04,.04,.08,.07,.12,.1,0,0,0,0,.01,0,.03,.03,.07,.06,.11,.09,0,0,.02,.01,.02,.02,.08,.07,.16,.14,.24,.21,0,0,0,0,.01,.01,.03,.03,.08,.07,.11,.09,0,0,0,0,.01,.01,.09,.07,.16,.14,.25,.21,0,0,0,0,0,0,.04,.03,.08,.07,.11,.1,0,0,.01,0,.02,.01,.09,.07,.16,.14,.25,.21,0,0,0,0,.01,.01,.04,.04,.08,.06,.12,.1,0,0,0,0,0,0,.09,.07,.17,.14,.25,.21,0,0,0,0,0,0,.13,.11,.25,.21,.38,.32,0,0,0,0,0,0,.13,.11,.25,.21,.38,.32,0,0,0,0,0,0,.13,.11,.26,.21,.39,.32,0,0,0,0,0,0,6.45,5.37,13.2,10.38,20.23,15.02l23.12-35.07c-14.52-9.57-27.61-21.15-38.9-34.42h0Zm85.78,56.51l-12.3,40.16c1.36,.42,2.73,.82,4.11,1.21,0,0,0,0,0,0,.11,.03,.22,.06,.34,.1,0,0,.02,0,.02,0,.04,.01,.07,.02,.11,.03h0c.07,.02,.14,.04,.2,.06,.01,0,.03,0,.04,.01,.03,0,.06,.02,.09,.03,.01,0,.03,0,.04,.01,.05,.02,.11,.03,.16,.05,.02,0,.03,0,.05,.01,.03,0,.06,.02,.08,.02,.01,0,.05,.01,.06,.02,.03,0,.06,.02,.08,.02,.03,0,.05,.02,.08,.02,.04,.01,.07,.02,.11,.03,.02,0,.06,.02,.08,.02,.02,0,.05,.01,.07,.02,.03,0,.05,.01,.08,.02,.03,0,.06,.02,.09,.02,.03,0,.07,.02,.1,.03,.02,0,.04,.01,.06,.02,.03,0,.06,.02,.09,.02,.02,0,.04,.01,.06,.02,.04,.01,.09,.03,.13,.04,.02,0,.03,0,.05,.01,.03,0,.07,.02,.1,.03,.02,0,.03,0,.05,.01,.04,.01,.09,.03,.13,.04,0,0,.02,0,.03,0,.04,.01,.09,.02,.13,.04,.01,0,.03,0,.04,.01,.04,.01,.08,.02,.12,.03,.01,0,.02,0,.03,0,.06,.02,.09,.03,.15,.04,0,0,.02,0,.03,0,.04,.01,.09,.02,.13,.04,0,0,.02,0,.03,0,.1,.03,.21,.06,.31,.08,0,0,.02,0,.02,0,.1,.03,.22,.06,.32,.09,0,0,0,0,.01,0,.06,.01,.1,.03,.16,.04,0,0,0,0,0,0,.11,.03,.22,.06,.33,.09,0,0,0,0,0,0,.11,.03,.22,.06,.33,.09,0,0,0,0,0,0,17.31,4.53,35.45,7.04,54.13,7.28l.54-42c-17.48-.22-34.73-2.91-51.27-7.97h0Zm150.2-19.51c-14.77,9.19-30.73,16.21-47.44,20.84l11.23,40.47c4.66-1.29,9.26-2.73,13.8-4.32,0,0,0,0,0,0,15.73-5.49,30.68-12.68,44.6-21.34l-22.19-35.66h0Zm68.61-76.54c-7.5,15.65-17.2,30.17-28.84,43.14l31.27,28.04c1.76-1.97,3.49-3.96,5.18-5.99,0,0,0,0,0,0,.07-.09,.14-.17,.21-.26,0,0,0,0,0,0,.04-.04,.07-.08,.11-.13h0c.07-.09,.14-.17,.21-.25,0,0,0-.01,.01-.02,.03-.04,.06-.08,.09-.11,0,0,0,0,0-.01,.04-.04,.07-.08,.1-.12,0,0,0,0,0-.01,.03-.03,.06-.07,.09-.11,0-.01,.02-.02,.03-.03,.03-.04,.06-.07,.09-.11,0,0,0,0,0-.01,.04-.04,.07-.08,.1-.12,0,0,.01-.01,.02-.02,.03-.03,.06-.07,.08-.1,0,0,.02-.02,.02-.03,.03-.04,.06-.08,.09-.12,0,0,0,0,0,0,.04-.04,.06-.08,.1-.12,0,0,.01-.01,.02-.02,.03-.03,.05-.06,.08-.1,0-.01,.02-.02,.02-.03,.06-.08,.13-.16,.19-.24,0-.01,.02-.02,.03-.04,.03-.03,.04-.05,.07-.09,0-.01,.02-.02,.03-.04,.03-.04,.06-.08,.1-.12h0s.06-.08,.09-.12c0-.01,.02-.02,.03-.04,.03-.03,.04-.05,.07-.09,0-.01,.02-.02,.03-.04,.03-.04,.06-.08,.09-.12,0,0,.01-.02,.02-.02,.03-.03,.05-.06,.08-.09,.01-.01,.02-.03,.03-.04,.02-.03,.05-.06,.07-.09,0-.01,.02-.02,.03-.03,.03-.03,.06-.08,.09-.11,0-.01,.02-.02,.03-.04,.02-.03,.04-.05,.07-.08,.01-.02,.02-.03,.03-.04,.02-.03,.05-.06,.07-.08,0-.01,.02-.02,.03-.04,.03-.03,.06-.08,.09-.11,.01-.01,.02-.03,.03-.04,.02-.02,.04-.05,.06-.07,.01-.02,.03-.03,.04-.05,.02-.03,.04-.05,.06-.08,.01-.02,.03-.03,.04-.05,.03-.03,.05-.06,.08-.1,.01-.02,.03-.03,.04-.05,.02-.02,.04-.04,.05-.07,.01-.02,.03-.04,.04-.05,.02-.03,.03-.04,.06-.07,.02-.03,.04-.05,.06-.08,.02-.03,.03-.04,.06-.07,.01-.02,.03-.04,.04-.06,.02-.02,.03-.04,.05-.06,.01-.02,.03-.04,.04-.05,.02-.03,.05-.06,.07-.09,.02-.02,.04-.05,.05-.07,.02-.02,.04-.04,.05-.07,.02-.02,.03-.04,.05-.06,.02-.02,.03-.04,.05-.06,.02-.02,.03-.04,.04-.06,.02-.03,.05-.06,.07-.09,.02-.03,.04-.05,.06-.08,.01-.02,.03-.03,.04-.05,.02-.02,.04-.05,.05-.07,.01-.02,.02-.02,.03-.04,.04-.05,.08-.11,.12-.16,0,0,0,0,0,0,.02-.02,.04-.05,.05-.07,.01-.02,.02-.03,.04-.05,.02-.02,.04-.05,.05-.07,0-.01,.02-.03,.03-.04,.04-.05,.08-.1,.11-.14,0,0,.02-.02,.02-.02,.02-.02,.04-.05,.06-.07,0-.01,.03-.03,.04-.04,.02-.02,.04-.05,.05-.07,0-.01,.02-.03,.03-.04,.04-.05,.07-.09,.1-.13,0-.01,.02-.03,.03-.04,.02-.02,.04-.05,.05-.07,0-.01,.03-.03,.04-.05,.02-.02,.04-.05,.06-.07,0,0,.01-.02,.02-.02,.04-.05,.08-.1,.11-.15,0-.01,.02-.03,.03-.04,.02-.02,.04-.05,.06-.07,.01-.02,.02-.03,.03-.04,.06-.08,.13-.17,.19-.25,0-.01,.02-.02,.03-.03,.02-.03,.04-.05,.06-.07,.01-.02,.02-.02,.03-.04,.07-.09,.13-.17,.2-.26,0,0,0-.01,.01-.02,.02-.03,.04-.06,.07-.09,0,0,0-.01,.01-.02,.07-.09,.14-.18,.21-.27,0,0,.01-.02,.02-.02,.02-.03,.04-.06,.06-.08,0,0,0-.01,.01-.02,.07-.09,.14-.18,.21-.27,0-.01,0-.01,.02-.02,.1-.13,.19-.25,.29-.38,0,0,0,0,0-.01,.07-.1,.15-.19,.22-.29h0s.05-.07,.07-.1h0c8.1-10.76,15.26-22.26,21.35-34.4h0c.13-.26,.26-.52,.39-.79h0c.07-.15,.15-.3,.22-.45h0c.07-.15,.14-.3,.22-.45v-.02c.08-.15,.15-.29,.22-.44,0,0,0-.01,0-.02,.05-.11,.1-.21,.16-.32h0s.03-.08,.05-.12c0,0,0-.01,.01-.02,.05-.1,.1-.21,.15-.31,0,0,0-.01,0-.02,.02-.03,.03-.07,.05-.1,0,0,0-.01,0-.02,.05-.11,.1-.21,.15-.32,0,0,0-.01,0-.02,.02-.03,.03-.07,.05-.1,0,0,0,0,0-.01,.03-.07,.06-.13,.1-.2,0,0,0,0,0-.01l-37.88-18.15h0Zm58.19-106.49l-41.69,5.08c.9,7.39,1.36,14.94,1.36,22.44,0,9.91-.8,19.85-2.37,29.54l41.46,6.72c1.02-6.3,1.78-12.67,2.26-19.12,0,0,0,0,0,0,.02-.24,.03-.47,.05-.71,0,0,0,0,0-.01,.01-.18,.03-.35,.04-.53h0c0-.06,0-.11,.01-.17,0,0,0,0,0-.01,.01-.18,.02-.35,.04-.53,0,0,0,0,0-.01,0-.06,0-.1,.01-.16,0,0,0,0,0-.01,.01-.18,.02-.34,.03-.52,0,0,0-.01,0-.02,0-.05,0-.1,0-.16,0,0,0-.01,0-.02,.01-.18,.02-.34,.03-.52,0,0,0,0,0-.02,0-.06,0-.1,0-.16,0,0,0-.01,0-.02,.01-.17,.02-.35,.03-.52,0,0,0-.02,0-.03,0-.04,0-.1,0-.15,0,0,0-.02,0-.02,0-.12,.01-.23,.02-.35,0,0,0,0,0,0,0-.05,0-.11,0-.16,0-.01,0-.02,0-.03,0-.04,0-.1,0-.15,0,0,0-.02,0-.02,0-.12,.01-.23,.02-.35,0,0,0-.01,0-.02,0-.04,0-.1,0-.15,0-.01,0-.02,0-.04,0-.04,0-.1,0-.14,0,0,0-.02,0-.03,0-.12,.01-.23,.02-.35,0,0,0-.01,0-.02,0-.04,0-.11,0-.15,0-.01,0-.02,0-.03,0-.04,0-.1,0-.15,0,0,0-.02,0-.02,0-.12,.01-.23,.02-.35,0,0,0-.01,0-.02,0-.05,0-.1,0-.14,0-.01,0-.03,0-.04,0-.05,0-.1,0-.15,0,0,0-.01,0-.02,0-.12,0-.22,.01-.34,0,0,0-.02,0-.03,0-.05,0-.1,0-.14,0-.01,0-.03,0-.04,0-.05,0-.1,0-.15,0,0,0,0,0-.01,0-.11,0-.23,.01-.35,0-.01,0-.02,0-.04,0-.05,0-.09,0-.13,0-.01,0-.03,0-.04,0-.05,0-.1,0-.15,0,0,0-.01,0-.02,0-.06,0-.11,0-.17,0,0,0,0,0-.01,0-.05,0-.1,0-.15,0-.01,0-.02,0-.04,0-.05,0-.09,0-.14,0-.01,0-.03,0-.04,0-.05,0-.1,0-.16,0,0,0,0,0,0,0-.06,0-.11,0-.17,0,0,0-.01,0-.02,0-.05,0-.1,0-.15,0-.01,0-.03,0-.04,0-.05,0-.08,0-.13,0-.01,0-.03,0-.04,0-.05,0-.1,0-.16,0,0,0,0,0,0,0-.06,0-.11,0-.17,0-.01,0-.02,0-.03,0-.05,0-.09,0-.14,0-.02,0-.03,0-.05,0-.05,0-.08,0-.12,0-.02,0-.03,0-.05,0-.11,0-.23,0-.33,0-.02,0-.03,0-.05,0-.04,0-.08,0-.12,0-.02,0-.04,0-.05,0-.05,0-.07,0-.12,0-.02,0-.03,0-.05,0-.05,0-.11,0-.16,0,0,0,0,0,0,0-.05,0-.11,0-.17,0-.02,0-.03,0-.05,0-.04,0-.08,0-.12,0-.02,0-.03,0-.05,0-.05,0-.08,0-.12,0-.01,0-.03,0-.04,0-.11,0-.23,0-.33,0-.02,0-.03,0-.05,0-.05,0-.08,0-.12,0-.02,0-.03,0-.05,0-.04,0-.08,0-.12,0-.02,0-.03,0-.05,0-.05,0-.11,0-.17,0,0,0-.01,0-.02,0-.05,0-.1,0-.15,0-.02,0-.03,0-.05,0-.05,0-.07,0-.12,0-.02,0-.03,0-.05,0-.05,0-.08,0-.13,0-.01,0-.03,0-.04,0-.06,0-.11,0-.17,0,0,0-.02,0-.02,0-.05,0-.1,0-.14,0-.02,0-.04,0-.05,0-.05,0-.07,0-.12,0-.02,0-.04,0-.06,0-.05,0-.08,0-.12,0-.01,0-.03,0-.04,0-.06,0-.1,0-.16,0-.01,0-.03,0-.04,0-.05,0-.08,0-.13,0-.02,0-.04,0-.05,0-.05,0-.07,0-.12,0-.02,0-.03,0-.05,0-.05,0-.09,0-.13,0-.01,0-.02,0-.04,0-.06,0-.11,0-.17,0-.01,0-.03,0-.04,0-.05,0-.08,0-.12,0-.02,0-.04,0-.06,0-.04,0-.07,0-.11,0-.02,0-.04,0-.06,0-.05,0-.08,0-.13,0-.01,0-.03,0-.04,0-.05,0-.11,0-.16,0-.02,0-.03,0-.04,0-.05,0-.08,0-.12,0-.02,0-.04,0-.06,0-.04,0-.08,0-.11,0-.02,0-.04,0-.06,0-.05,0-.1,0-.14,0,0,0-.02,0-.03,0-.05,0-.11,0-.16,0-.02,0-.03,0-.05,0-.04,0-.08,0-.12,0-.02,0-.04,0-.06,0-.04,0-.08,0-.11,0-.02,0-.04,0-.05,0-.05,0-.11,0-.17h0c0-.05,0-.11,0-.16v-.03s0-.11,0-.15c0-.01,0-.02,0-.03,0-.05,0-.11,0-.16h0c0-.06,0-.11,0-.16,0-.01,0-.02,0-.03,0-.05,0-.11,0-.16,0,0,0-.02,0-.03,0-.05,0-.11,0-.16,0,0,0,0,0,0,0-.05,0-.11,0-.16,0-.01,0-.02,0-.03,0-.05,0-.11,0-.16,0-.01,0-.02,0-.03,0-.05,0-.11,0-.16,0,0,0,0,0,0,0-.05,0-.11,0-.16,0-.01,0-.02,0-.03,0-.05,0-.11,0-.16,0-.01,0-.02,0-.03,0-.05,0-.11,0-.16h0c0-.06,0-.11,0-.16,0-.01,0-.02,0-.03,0-.05,0-.11,0-.16,0-.01,0-.02,0-.03,0-.05,0-.11,0-.16,0,0,0,0,0,0,0-.05,0-.1,0-.15,0-.01,0-.03,0-.04,0-.05,0-.11,0-.15,0-.01,0-.02,0-.03,0-.05,0-.11,0-.16,0,0,0,0,0,0,0-.05,0-.11,0-.17,0,0,0-.02,0-.03,0-.05,0-.11,0-.16,0,0,0-.02,0-.03,0-.11,0-.22,0-.33,0,0,0-.02,0-.03,0-.05,0-.11,0-.16,0,0,0-.02,0-.03,0-.11,0-.22,0-.33,0-.01,0-.02,0-.03,0-.05,0-.11,0-.16,0-.01,0-.02,0-.03,0-.05,0-.11,0-.16,0,0,0,0,0,0,0-.05,0-.1,0-.16,0-.01,0-.02,0-.03,0-.05,0-.11,0-.16,0,0,0-.02,0-.03,0-.05,0-.11,0-.16,0,0,0,0,0,0,0-.05,0-.11,0-.16,0,0,0-.02,0-.03,0-.05,0-.1,0-.15,0-.01,0-.02,0-.04,0-.05,0-.11,0-.16,0,0,0,0,0,0,0-.05,0-.11,0-.16,0,0,0-.02,0-.03,0-.06,0-.1,0-.16,0,0,0-.02,0-.02,0-.11,0-.23,0-.33,0,0,0-.02,0-.02,0-.06,0-.1,0-.16,0,0,0-.01,0-.02,0-.11,0-.23-.01-.33,0,0,0-.02,0-.03,0-.06,0-.1,0-.16,0,0,0-.01,0-.02,0-.11,0-.23-.01-.34,0,0,0-.01,0-.02,0-.06,0-.1,0-.16,0,0,0-.02,0-.03,0-.11,0-.23-.01-.33,0,0,0-.02,0-.02,0-.06,0-.1,0-.16,0,0,0-.02,0-.02,0-.11,0-.23-.01-.33,0,0,0-.01,0-.02,0-.06,0-.1,0-.16,0,0,0-.02,0-.02,0-.11,0-.23-.01-.33,0,0,0-.02,0-.02,0-.06,0-.1,0-.16,0,0,0-.01,0-.02,0-.12,0-.22-.01-.34,0,0,0-.01,0-.02,0-.06,0-.11,0-.17,0,0,0-.01,0-.02,0-.12,0-.22-.02-.34,0,0,0,0,0-.01,0-.06,0-.11,0-.17,0,0,0,0,0-.01,0-.12-.01-.23-.02-.35,0,0,0,0,0-.01,0-.06,0-.11,0-.17,0,0,0-.01,0-.02,0-.11-.01-.22-.02-.34,0,0,0-.02,0-.02,0-.06,0-.1,0-.16,0,0,0-.01,0-.02,0-.12-.01-.22-.02-.34,0,0,0,0,0,0,0-.06,0-.11,0-.17,0,0,0-.01,0-.02,0-.12-.01-.22-.02-.34,0,0,0-.01,0-.02,0-.06,0-.11,0-.17,0,0,0-.01,0-.02,0-.12-.01-.22-.02-.34,0,0,0,0,0,0,0-.06,0-.11,0-.17,0,0,0,0,0-.01,0-.12-.01-.23-.02-.35,0,0,0,0,0,0,0-.06,0-.11-.01-.17,0,0,0,0,0,0,0-.12-.01-.23-.02-.35,0,0,0,0,0,0,0-.06,0-.11-.01-.17,0,0,0-.01,0-.02,0-.12-.01-.22-.02-.34,0,0,0,0,0,0,0-.06,0-.11-.01-.17,0,0,0,0,0-.01,0-.12-.02-.23-.02-.35,0,0,0,0,0,0,0-.06,0-.11-.01-.17,0,0,0,0,0,0,0-.12-.02-.23-.02-.35,0,0,0,0,0-.01,0-.06,0-.11-.01-.17,0,0,0-.01,0-.02,0-.12-.02-.22-.02-.34,0,0,0,0,0,0,0-.06,0-.11-.01-.17,0,0,0-.01,0-.02,0-.12-.02-.22-.03-.34,0,0,0,0,0-.01,0-.06,0-.11-.01-.17,0,0,0,0,0-.01,0-.12-.02-.22-.03-.34,0,0,0,0,0-.01,0-.06,0-.11-.01-.17,0,0,0,0,0-.01,0-.12-.02-.22-.03-.34,0,0,0,0,0-.01,0-.06,0-.11-.01-.17,0,0,0,0,0,0,0-.12-.02-.23-.03-.35,0,0,0,0,0,0,0-.06,0-.11-.01-.17,0,0,0,0,0-.01,0-.12-.02-.23-.03-.35,0,0,0,0,0,0,0-.06,0-.11-.01-.17,0,0,0,0,0,0-.01-.12-.02-.23-.03-.35,0,0,0,0,0,0,0-.06,0-.11-.01-.17,0,0,0,0,0-.01-.01-.12-.02-.22-.03-.34,0,0,0-.01,0-.02,0-.06,0-.11-.01-.17,0,0,0,0,0-.01-.01-.12-.02-.23-.03-.35,0,0,0,0,0,0,0-.06-.01-.11-.02-.17,0,0,0,0,0-.01-.01-.12-.02-.22-.03-.34,0,0,0,0,0-.01,0-.06-.01-.11-.02-.17,0,0,0,0,0-.01-.01-.12-.02-.22-.03-.34,0,0,0,0,0-.01,0-.06-.01-.11-.02-.17,0,0,0-.01,0-.02-.01-.11-.02-.22-.03-.33v-.02c0-.06-.01-.1-.02-.16,0,0,0-.01,0-.02-.01-.12-.02-.22-.03-.33,0,0,0-.01,0-.02,0-.05-.01-.11-.02-.16,0,0,0-.02,0-.03-.01-.1-.02-.22-.03-.32,0,0,0-.01,0-.02,0-.06-.01-.1-.02-.16,0,0,0-.01,0-.02-.01-.11-.02-.22-.03-.33,0,0,0-.01,0-.02,0-.06-.01-.1-.02-.16,0,0,0-.01,0-.02-.01-.11-.02-.22-.04-.33,0,0,0-.02,0-.03,0-.05-.01-.1-.02-.15,0-.01,0-.02,0-.03,0-.05-.01-.11-.02-.16,0,0,0,0,0-.01,0-.05-.01-.1-.02-.15,0,0,0-.02,0-.02,0-.05-.01-.1-.02-.15,0-.01,0-.02,0-.03,0-.05-.01-.11-.02-.16,0,0,0,0,0,0,0-.05-.01-.1-.02-.15,0-.01,0-.02,0-.03,0-.04-.01-.11-.02-.15,0-.01,0-.02,0-.03,0-.05-.01-.1-.02-.16,0,0,0,0,0-.01,0-.05-.01-.1-.02-.15,0-.01,0-.02,0-.03,0-.04-.01-.1-.02-.15,0-.01,0-.02,0-.04,0-.05-.01-.1-.02-.15,0,0,0-.01,0-.02,0-.04-.01-.1-.02-.14,0-.01,0-.02,0-.03,0-.04-.01-.1-.02-.15,0-.01,0-.02,0-.04,0-.05-.01-.1-.02-.15,0,0,0-.02,0-.02,0-.04-.01-.09-.02-.14,0-.01,0-.02,0-.04,0-.04-.01-.1-.02-.14,0-.01,0-.03,0-.04,0-.05-.01-.09-.02-.15,0,0,0-.01,0-.02,0-.02,0-.06-.01-.08h0Zm-50-115.95l-32.34,26.8c11.12,13.42,20.24,28.3,27.12,44.23l38.56-16.65s0-.01,0-.02c-.01-.03-.03-.06-.04-.09,0-.01-.01-.03-.02-.04-.04-.1-.09-.2-.13-.3,0-.01-.01-.03-.02-.04-.01-.03-.03-.06-.04-.09,0,0,0-.02-.01-.03-.03-.07-.06-.13-.09-.2,0,0,0,0,0-.02-.01-.03-.03-.06-.04-.09,0-.01-.01-.02-.02-.04-.05-.11-.09-.21-.14-.32,0,0,0,0,0-.01-.01-.03-.03-.07-.04-.1,0-.01,0-.02-.01-.03-.05-.1-.09-.21-.14-.31,0-.01,0,0,0-.02-.01-.03-.03-.06-.04-.1,0-.01-.01-.02-.02-.04-.04-.1-.09-.2-.13-.3,0,0-.01-.02-.01-.03-.01-.03-.03-.07-.04-.1,0,0,0-.02,0-.02-.05-.11-.09-.21-.14-.32,0,0,0-.02,0-.02-.02-.03-.03-.07-.05-.1,0,0,0,0,0,0-.05-.11-.1-.22-.15-.33v-.02c-.06-.11-.11-.22-.16-.34h0s-.03-.07-.05-.11c0,0,0-.01,0-.02-.05-.11-.1-.21-.14-.32,0,0,0-.01,0-.02-.02-.03-.03-.07-.05-.1h0c-.05-.12-.1-.23-.15-.34,0,0,0,0,0-.02-.02-.04-.03-.07-.05-.11h0c-.05-.11-.1-.22-.15-.34,0,0,0,0,0-.01-.07-.15-.14-.3-.2-.44,0,0,0,0,0-.01-.07-.15-.14-.3-.21-.45,0,0,0,0,0,0-.07-.15-.14-.3-.21-.45h0c-.05-.11-.11-.23-.16-.34,0,0,0,0,0,0-.07-.15-.14-.3-.21-.45h0c-.07-.16-.14-.31-.21-.46h0c-.27-.57-.54-1.14-.81-1.7h0c-7.91-16.27-17.72-31.45-29.14-45.23h0ZM293.78,10.71l-12.83,39.99c16.51,5.29,32.18,12.93,46.59,22.7l23.57-34.76c-.95-.64-1.9-1.28-2.85-1.9h0c-.09-.06-.19-.12-.28-.19,0,0,0,0,0,0-.14-.09-.28-.18-.42-.27,0,0,0,0-.01,0-.09-.06-.18-.12-.28-.18,0,0,0,0,0,0-.04-.03-.09-.06-.13-.08,0,0-.01,0-.02-.01-.09-.06-.17-.11-.27-.17,0,0-.01,0-.02-.01-.04-.02-.08-.05-.12-.08,0,0-.01,0-.02-.01-.09-.06-.18-.11-.27-.17-.01,0-.02-.01-.03-.02-.04-.02-.07-.04-.11-.07,0,0-.02-.01-.03-.02-.05-.03-.08-.05-.13-.08,0,0-.01,0-.02,0-.04-.02-.08-.05-.11-.07-.01,0-.02-.01-.04-.02-.04-.02-.07-.05-.11-.07,0,0-.02,0-.02-.01-.04-.03-.09-.05-.13-.08,0,0-.02-.01-.03-.02-.04-.02-.07-.04-.1-.06-.01,0-.02-.01-.03-.02-.04-.03-.08-.05-.12-.08,0,0,0,0,0,0-.04-.03-.09-.06-.13-.08-.01,0-.03-.02-.04-.02-.03-.02-.06-.04-.09-.06-.01,0-.03-.02-.04-.03-.04-.03-.08-.05-.12-.08,0,0-.02-.01-.03-.02-.04-.02-.07-.04-.1-.06-.01,0-.03-.02-.04-.03-.04-.02-.06-.04-.1-.06,0,0-.02-.01-.03-.02-.05-.03-.08-.05-.13-.08-.01,0-.02-.01-.03-.02-.04-.02-.06-.04-.1-.06-.01,0-.03-.02-.04-.03-.03-.02-.07-.04-.1-.06-.01,0-.02-.01-.04-.02-.04-.03-.08-.05-.12-.08-.02-.01-.03-.02-.05-.03-.02-.01-.05-.03-.08-.05-.02-.01-.04-.02-.06-.04-.03-.02-.06-.04-.09-.06-.02-.01-.04-.02-.06-.03-.04-.02-.06-.04-.1-.06-.02-.01-.04-.02-.05-.03-.02-.01-.05-.03-.07-.05-.02-.01-.04-.02-.06-.03-.04-.02-.06-.04-.1-.06-.02-.01-.05-.03-.07-.04-.02-.01-.05-.03-.07-.04-.02-.01-.04-.02-.06-.04-.02-.01-.04-.03-.07-.04-.02-.01-.04-.03-.06-.04-.04-.02-.07-.05-.11-.07-.02-.01-.05-.03-.07-.04-.02-.01-.04-.02-.06-.03-.02-.01-.05-.03-.07-.04-.02-.01-.04-.03-.06-.04-.04-.02-.07-.04-.11-.07-.02-.01-.04-.03-.07-.04-.02-.01-.05-.03-.07-.04-.02-.01-.03-.02-.05-.03-.02-.01-.05-.03-.07-.04-.01,0-.03-.02-.04-.03-.05-.03-.1-.06-.15-.09-.01,0-.03-.02-.04-.02-.03-.02-.05-.03-.08-.05-.01,0-.03-.02-.05-.03-.03-.02-.05-.03-.08-.05-.01,0-.02-.01-.03-.02-.05-.03-.11-.06-.16-.1-.01,0-.02-.01-.03-.02-.03-.02-.06-.04-.09-.05,0,0-.02-.01-.03-.02-.09-.06-.18-.11-.27-.17-.02-.01-.02-.01-.04-.02-.03-.02-.05-.03-.08-.05-.01,0-.03-.02-.04-.02-.05-.03-.1-.06-.15-.09,0,0-.03-.02-.03-.02-.03-.02-.06-.03-.08-.05-.01,0-.02-.01-.04-.02-.03-.02-.06-.04-.09-.05h0c-.06-.04-.13-.08-.19-.12,0,0-.01,0-.02-.01-.03-.02-.06-.04-.09-.05,0,0-.02-.01-.03-.02-.09-.06-.19-.11-.28-.17-.01,0-.02-.01-.04-.02-.03-.02-.06-.03-.09-.05-.01,0-.02-.01-.03-.02-.09-.06-.19-.11-.28-.17-.01,0-.02-.01-.03-.02-.03-.02-.06-.04-.09-.05,0,0-.01,0-.02-.01-.1-.06-.2-.12-.3-.18,0,0-.01,0-.02-.01-.1-.06-.2-.12-.31-.18,0,0,0,0,0,0-.03-.02-.07-.04-.1-.06,0,0,0,0-.01,0-.1-.06-.2-.12-.31-.18,0,0,0,0-.01,0-.03-.02-.07-.04-.1-.06h0c-.1-.06-.21-.13-.31-.19,0,0,0,0,0,0-.14-.08-.28-.16-.42-.24,0,0,0,0-.01,0-13.77-7.98-28.46-14.54-43.88-19.48h0ZM225,0V42c1.6,0,3.21,.02,4.8,.06L230.88,.08c-1.65-.04-3.31-.07-4.97-.07,0,0,0,0,0,0-.06,0-.11,0-.17,0,0,0-.01,0-.02,0-.05,0-.11,0-.16,0-.01,0-.03,0-.04,0-.05,0-.1,0-.14,0-.02,0-.03,0-.05,0-.05,0-.09,0-.14,0-.06,0-.12,0-.18,0h0Z"/>
      <path class="cls-1" d="M225,18c27.95,0,55.06,5.47,80.57,16.26,24.65,10.42,46.79,25.35,65.8,44.37,19.02,19.02,33.94,41.16,44.37,65.8,10.79,25.51,16.26,52.62,16.26,80.57s-5.47,55.06-16.26,80.57c-10.42,24.65-25.35,46.79-44.37,65.8s-41.16,33.94-65.8,44.37c-25.51,10.79-52.62,16.26-80.57,16.26s-55.06-5.47-80.57-16.26c-24.65-10.42-46.79-25.35-65.8-44.37-19.02-19.02-33.94-41.16-44.37-65.8-10.79-25.51-16.26-52.62-16.26-80.57s5.47-55.06,16.26-80.57c10.42-24.65,25.35-46.79,44.37-65.8,19.02-19.02,41.16-33.94,65.8-44.37,25.51-10.79,52.62-16.26,80.57-16.26m0-18C100.74,0,0,100.74,0,225s100.74,225,225,225,225-100.74,225-225S349.26,0,225,0h0Z"/>
    </g>
    <path class="cls-1" d="M318.76,170.26l-80.84,17.82-57.45-62.86c-15.47-16.92-43.45-10.75-50.37,11.1l-33.22,104.89c-6.92,21.86,12.41,43.01,34.8,38.07l80.86-17.82,57.44,62.84c15.47,16.93,43.47,10.76,50.39-11.11l33.2-104.85c6.92-21.86-12.42-43.02-34.81-38.09Z"/>
  </g>
</svg>