<?xml version="1.0" encoding="UTF-8"?>
<svg id="Layer_2" data-name="Layer 2" xmlns="http://www.w3.org/2000/svg" viewBox="0 0 97.53 97.53">
  <defs>
    <style>
      .cls-1 {
        fill: #efc75e;
      }

      .cls-2 {
        fill: #c93;
      }
    </style>
  </defs>
  <g id="Layer_1-2" data-name="Layer 1">
    <g>
      <g>
        <path class="cls-1" d="M48.77,0c26.94,0,48.77,21.84,48.77,48.77s-21.83,48.77-48.77,48.77S0,75.7,0,48.77,21.83,0,48.77,0Z"/>
        <path class="cls-2" d="M48.77,9.14C26.88,9.14,9.14,26.88,9.14,48.77s17.74,39.62,39.62,39.62,39.62-17.74,39.62-39.62S70.65,9.14,48.77,9.14Zm0,73.15c-18.52,0-33.53-15.01-33.53-33.53S30.25,15.24,48.77,15.24s33.53,15.01,33.53,33.53-15.01,33.53-33.53,33.53Z"/>
      </g>
      <g id="GuzQ32">
        <g>
          <path class="cls-2" d="M69.04,46.64c.33-18.28-5.45-28.07-17.82-7.42-1.33,0-3.98,0-5.86,.47-16.37-14.42-22.56-10.38-16.71,10.9-8.1,29.55,54.14,22.73,40.38-3.95Z"/>
          <path class="cls-1" d="M58.14,43.53c-9.35,.2-9.31,14.01,.02,14.18,9.34-.2,9.32-14.01-.02-14.18Z"/>
          <path class="cls-1" d="M39.77,45.74c-9.32,.1-9.44,13.94-.13,14.21,9.31-.08,9.44-13.96,.13-14.21Z"/>
          <path class="cls-2" d="M53.74,50.36c.04-6.28,8.65-6.22,8.76-.02-.09,6.37-8.63,6.37-8.76,.02Z"/>
          <path class="cls-2" d="M39.8,47.8c5.73,.16,5.63,9.48-.05,9.62-5.78-.1-5.73-9.56,.05-9.62Z"/>
        </g>
      </g>
    </g>
  </g>
</svg>