<?xml version="1.0" encoding="UTF-8"?>
<svg id="Layer_2" data-name="Layer 2" xmlns="http://www.w3.org/2000/svg" viewBox="0 0 388.12 450.94">
  <defs>
    <style>
      .cls-1 {
        fill: #ff4081;
        stroke-width: 0px;
      }
    </style>
  </defs>
  <g id="Layer_1-2" data-name="Layer 1">
    <path class="cls-1" d="m0,0h132.5v450.94H0V0Zm66.25,360.31h122.81c20.42,0,36.2-4.22,47.34-12.66,11.14-8.44,16.72-20.57,16.72-36.41v-.62c0-10.21-2.55-18.96-7.66-26.25-5.11-7.29-12.61-12.81-22.5-16.56-9.9-3.75-22.14-5.62-36.72-5.62h-120v-79.69h113.75c19.79,0,34.79-4.22,45-12.66,10.21-8.44,15.31-19.95,15.31-34.53v-.62c0-13.54-4.9-24.27-14.69-32.19-9.79-7.92-23.12-11.88-40-11.88h-119.38V0h155.31c31.04,0,57.55,4.53,79.53,13.59,21.98,9.06,38.8,22.08,50.47,39.06,11.67,16.98,17.5,37.34,17.5,61.09v.62c0,17.5-4.06,33.23-12.19,47.19-8.12,13.96-19.22,25.37-33.28,34.22-14.06,8.86-29.84,14.43-47.34,16.72v2.5c20.21.42,38.8,5.31,55.78,14.69,16.98,9.38,30.57,21.93,40.78,37.66,10.21,15.73,15.31,33.39,15.31,52.97v.62c0,26.04-6.56,48.8-19.69,68.28-13.12,19.48-31.56,34.64-55.31,45.47-23.75,10.83-51.77,16.25-84.06,16.25H66.25v-90.62Z"/>
  </g>
</svg>