<?xml version="1.0" encoding="UTF-8"?>
<svg id="Layer_2" data-name="Layer 2" xmlns="http://www.w3.org/2000/svg" viewBox="0 0 443.9 647.31">
  <defs>
    <style>
      .cls-1 {
        fill: #027cff;
      }

      .cls-2 {
        fill: #09090b;
      }
    </style>
  </defs>
  <g id="Layer_2-2" data-name="Layer 2">
    <g>
      <path class="cls-2" d="M441.86,383.47c-12.57-108.57-83.25-192.03-206.7-192.03-17.83,0-67.33,3.88-95.08,18.41l-.39-79.18h0S0,211.3,0,211.3v.02l.03,363.94c.01,.32,.03,.64,.05,.95,2.45,48.62,41.2,71.1,77,71.1l162-.05c66.31-.32,117.51-26.19,152.14-67.54,5.64-6.74,10.85-13.89,15.6-21.41,24.43-38.6,37.07-86.9,37.07-138.98,0-12.2-.68-24.18-2.04-35.86Zm-221.23,130.33c-53.51,0-83.89-37.66-83.89-94.47s31.71-95.12,83.89-95.12c35.01,0,80.59,24.44,80.59,95.12,0,66.72-45.58,94.47-80.59,94.47ZM.04,575.26c-.06-1.33,0,1.35,0,0H.04Z"/>
      <path class="cls-1" d="M139.69,130.66h0S0,211.32,0,211.32V72.31s0-5.59,0-5.59C0,22.46,35.67,0,70.02,0s69.36,22.46,69.36,66.72l.03,5.59,.28,58.35Z"/>
    </g>
  </g>
</svg>