<?xml version="1.0" encoding="UTF-8"?>
<svg id="Layer_2" data-name="Layer 2" xmlns="http://www.w3.org/2000/svg" viewBox="0 0 122.8 117.37">
  <defs>
    <style>
      .cls-1 {
        fill: #f9dd53;
      }
    </style>
  </defs>
  <g id="Layer_1-2" data-name="Layer 1">
    <path class="cls-1" d="M120.32,51.1l-30.71,22.32,11.73,36.1c.81,2.47-.07,5.18-2.18,6.71-1.05,.76-2.28,1.14-3.52,1.14s-2.48-.38-3.53-1.14l-30.71-22.31-30.71,22.31c-1.05,.76-2.29,1.14-3.53,1.14s-2.47-.38-3.52-1.14c-2.11-1.53-2.99-4.24-2.18-6.71l11.73-36.1L2.48,51.1c-2.11-1.52-2.99-4.23-2.18-6.7,.8-2.48,3.1-4.15,5.7-4.15H43.96L55.69,4.15c.81-2.48,3.11-4.15,5.71-4.15s4.9,1.67,5.71,4.15l11.73,36.1h37.96c2.6,0,4.9,1.67,5.7,4.15,.81,2.47-.07,5.18-2.18,6.7Z"/>
  </g>
</svg>