<?xml version="1.0" encoding="UTF-8"?>
<svg id="Layer_2" data-name="Layer 2" xmlns="http://www.w3.org/2000/svg" viewBox="0 0 17.52 23.78">
  <defs>
    <style>
      .cls-1 {
        fill: #f95364;
      }
    </style>
  </defs>
  <g id="Layer_1-2" data-name="Layer 1">
    <path class="cls-1" d="M8.76,23.78C3.93,23.78,0,19.85,0,15.02c0-2.55,1.12-5.35,2.86-7.13l.17-.17c1.44-1.47,3.23-3.31,3.23-6.47,0-.51,.3-.96,.77-1.16,.47-.19,1.01-.09,1.36,.27,1.47,1.47,3.85,6.27,2.07,10.38,.22-.06,.92-.43,2.23-2.63,.2-.34,.56-.57,.96-.61,.39-.04,.79,.12,1.05,.41,1.33,1.5,2.82,4.78,2.82,7.09,0,4.83-3.93,8.76-8.76,8.76Z"/>
  </g>
</svg>