<?xml version="1.0" encoding="UTF-8"?>
<svg id="Layer_2" data-name="Layer 2" xmlns="http://www.w3.org/2000/svg" viewBox="0 0 536.6 252.8">
  <defs>
    <style>
      .cls-1 {
        fill: #fff;
      }

      .cls-2 {
        fill: #f43f5e;
      }
    </style>
  </defs>
  <g id="Layer_1-2" data-name="Layer 1">
    <g id="outlined">
      <g>
        <path class="cls-1" d="M471.59,53.2c-8.8,0-17.6,4.6-21.4,15.2l-20.2,55.6-26.4-56.6c-4.6-10-13-14.2-21.2-14.2-3.48,0-6.89,.75-9.97,2.13-10.19-3.2-22.05-4.53-31.63-4.53-14.74,0-26.45,3.01-35.42,7.77-2.44-1.12-5.3-1.77-8.58-1.77h-20v-15.4c0-13.6-10.8-20.4-21.6-20.4s-21.8,6.8-21.8,20.4v15.4h-6c-4.82,0-8.73,1.35-11.74,3.54-9.53-5.13-20.95-8.14-33.86-8.14-21.64,0-39.12,7.88-50.88,21.19-10.63-12.93-26.62-20.99-47.72-20.99-5.4,0-20.4,1.2-28.8,5.6l-.2-25.8c0-13.4-10.6-20.2-21-20.2s-21.2,6.8-21.2,20.2V168c0,15.8,12.2,22,23.4,22,9.6,0,18.6-4.6,18.6-11.6,4,6.2,15.8,12,29.2,12h.8c20.66,0,36.5-8.18,47.06-21.21,13.08,14.27,32.43,21.41,53.14,21.41,24.17,0,45.29-8.6,52.94-20.87,6.72,14.31,21.65,20.87,37.46,20.87,8.73,0,19.47-2.07,28.01-6.55,11.79,4.7,25.76,6.75,35.79,6.75,32,0,54.24-14.76,60.32-33.24l9.08,18.44c-1.6,5.4-5.6,14-7.6,17.2-1.8,2.6-4.2,4.2-7.4,4.2-1,0-2-.2-3-.4-2-.4-4-.8-5.8-.8-12.6,0-19.4,10.8-19.4,21.6,0,22.8,23.4,23,32.4,23,18.8,0,34-8.6,43-30.2l51.4-126.2c1.6-3.8,2.4-7.4,2.4-10.8,0-12.8-11-20.4-22.2-20.4ZM181.4,85.8c18.4,0,23.8,11.8,23.8,15.4,0,2.4-1.4,3.6-4.2,3.6h-44c1.6-9.4,11.2-18.8,24.4-19Zm-102.6,64.2c-16.2,0-25.4-11.4-25.4-28.6s9.6-28.8,25.4-28.8c10.6,0,24.4,7.4,24.4,28.8,0,20.2-13.8,28.6-24.4,28.6Zm141.4-9.8c-4.4,0-9,1.4-13.2,5-6,4.8-14.2,7-22,7-24.6,0-28-17.2-28.4-19.8h65.8c4.27,0,7.92-.46,11-1.36v14.2c-3.59-3.12-8.26-5.05-13.2-5.05Zm118.2,13.6c-10.4,0-20-3.6-25-8.6-4-4-8.8-5.6-13.4-5.6-5.56,0-10.96,2.46-14.77,6.41-1.83,1.03-3.31,1.39-4.43,1.39-2.8,0-4-2.4-4-6v-45.4h5.25c.83,16.16,12.89,31.58,38.35,36.4,7.6,1.4,18.6,2.4,26,4.6,6.2,2,9.2,5.2,9.2,8.4,0,8-14.2,8.4-17.2,8.4Zm18-49.6c-9.2-2.4-16.2-3-25.2-5.4-4.4-1.2-6.4-3.8-6.4-6.4,0-7.8,15.6-7.8,16.6-7.8,8,0,16,2,22.6,6.6,.98,.7,1.97,1.3,2.95,1.81l9.43,19.16c-5.62-3.16-12.26-5.87-19.98-7.97Z"/>
        <path d="M33.2,12c10.4,0,21,6.8,21,20.2l.2,25.8c8.4-4.4,23.4-5.6,28.8-5.6,21.1,0,37.09,8.06,47.72,20.99,11.76-13.31,29.24-21.19,50.88-21.19,12.91,0,24.33,3.01,33.86,8.14,3.01-2.19,6.92-3.54,11.74-3.54h6v-15.4c0-13.6,10.8-20.4,21.8-20.4s21.6,6.8,21.6,20.4v15.4h20c3.28,0,6.14,.65,8.58,1.77,8.97-4.76,20.68-7.77,35.42-7.77,9.58,0,21.45,1.33,31.63,4.53,3.08-1.39,6.49-2.13,9.97-2.13,8.2,0,16.6,4.2,21.2,14.2l26.4,56.6,20.2-55.6c3.8-10.6,12.6-15.2,21.4-15.2,11.2,0,22.2,7.6,22.2,20.4,0,3.4-.8,7-2.4,10.8l-51.4,126.2c-9,21.6-24.2,30.2-43,30.2-9,0-32.4-.2-32.4-23,0-10.8,6.8-21.6,19.4-21.6,1.8,0,3.8,.4,5.8,.8,1,.2,2,.4,3,.4,3.2,0,5.6-1.6,7.4-4.2,2-3.2,6-11.8,7.6-17.2l-9.08-18.44c-6.08,18.48-28.32,33.24-60.32,33.24-10.03,0-24-2.05-35.79-6.75-8.54,4.48-19.28,6.55-28.01,6.55-15.81,0-30.74-6.56-37.46-20.87-7.65,12.27-28.77,20.87-52.94,20.87-20.72,0-40.06-7.14-53.14-21.41-10.55,13.03-26.39,21.21-47.06,21.21h-.8c-13.4,0-25.2-5.8-29.2-12,0,7-9,11.6-18.6,11.6-11.2,0-23.4-6.2-23.4-22V32.2c0-13.4,10.6-20.2,21.2-20.2M376.37,112.17l-9.43-19.16c-.98-.51-1.97-1.11-2.95-1.81-6.6-4.6-14.6-6.6-22.6-6.6-1,0-16.6,0-16.6,7.8,0,2.6,2,5.2,6.4,6.4,9,2.4,16,3,25.2,5.4,7.72,2.1,14.36,4.81,19.98,7.97m-219.37-7.37h44c2.8,0,4.2-1.2,4.2-3.6,0-3.6-5.4-15.4-23.8-15.4-13.2,.2-22.8,9.6-24.4,19m-78.2,45.2c10.6,0,24.4-8.4,24.4-28.6,0-21.4-13.8-28.8-24.4-28.8-15.8,0-25.4,11-25.4,28.8s9.2,28.6,25.4,28.6m202-2.6c1.12,0,2.6-.36,4.43-1.39,3.81-3.94,9.2-6.41,14.77-6.41,4.6,0,9.4,1.6,13.4,5.6,5,5,14.6,8.6,25,8.6,3,0,17.2-.4,17.2-8.4,0-3.2-3-6.4-9.2-8.4-7.4-2.2-18.4-3.2-26-4.6-25.46-4.82-37.52-20.24-38.35-36.4h-5.25v45.4c0,3.6,1.2,6,4,6m-95.8,4.8c7.8,0,16-2.2,22-7,4.2-3.6,8.8-5,13.2-5,4.94,0,9.61,1.93,13.2,5.05v-14.2c-3.08,.9-6.73,1.36-11,1.36h-65.8c.4,2.6,3.8,19.8,28.4,19.8M33.2,0C24.81,0,16.88,2.82,10.86,7.93,3.86,13.87,0,22.49,0,32.2V168c0,10.83,4.28,20.18,12.05,26.33,6.24,4.95,14.54,7.67,23.35,7.67,8.31,0,15.64-2.3,21.05-6.17,7.58,4.1,17.11,6.57,26.75,6.57h.8c18.64,0,34.85-5.68,47.54-16.55,14.16,10.88,32.43,16.75,52.65,16.75s39-5.42,51.54-14.49c9.52,9.25,23.18,14.49,38.86,14.49,9.62,0,19.92-2.05,28.55-5.58,10.98,3.66,23.79,5.78,35.25,5.78,6.23,0,12.27-.51,18.05-1.5-2.51,4.97-3.85,10.64-3.85,16.5,0,14.65,7.18,25.71,20.22,31.13,9.31,3.87,19.35,3.87,24.18,3.87,25.13,0,43.83-13,54.08-37.58l.02-.04,.02-.04,51.37-126.13c2.2-5.24,3.31-10.42,3.31-15.39,0-9.52-3.96-18.1-11.16-24.17-6.29-5.3-14.47-8.23-23.04-8.23-15.04,0-27.56,8.86-32.69,23.12l-10.29,28.33-14.13-30.3c-6.11-13.25-18.1-21.15-32.09-21.15-3.51,0-7.04,.52-10.4,1.52-9.49-2.51-20.62-3.92-31.2-3.92-13.64,0-25.81,2.31-36.27,6.87-2.47-.58-5.05-.87-7.73-.87h-8v-3.4c0-9.82-3.92-18.52-11.03-24.49-6.08-5.1-14.09-7.91-22.57-7.91s-16.62,2.8-22.71,7.89c-7.15,5.97-11.09,14.67-11.09,24.51v3.91c-2.05,.36-4.03,.9-5.92,1.62-10.28-4.47-21.58-6.72-33.67-6.72-19.45,0-36.99,5.78-50.59,16.48-12.77-10.7-29.14-16.28-48.01-16.28-.13,0-7.9,.03-16.92,1.59l-.08-9.84c-.01-9.66-3.85-18.25-10.81-24.2C49.39,2.82,41.51,0,33.2,0h0Z"/>
      </g>
      <g>
        <path class="cls-2" d="M513.87,42.5l-32.84,7.24-23.34-25.53c-6.28-6.87-17.65-4.37-20.46,4.51l-13.49,42.61c-2.81,8.88,5.04,17.47,14.14,15.47l32.85-7.24,23.33,25.53c6.29,6.88,17.66,4.37,20.47-4.51l13.49-42.59c2.81-8.88-5.04-17.48-14.14-15.47Z"/>
        <path d="M448.81,20.26c3.2,0,6.43,1.25,8.89,3.94l23.34,25.53,32.84-7.24c.9-.2,1.8-.29,2.67-.29,7.89,0,14.01,7.77,11.48,15.77l-13.49,42.59c-1.71,5.41-6.6,8.45-11.58,8.45-3.2,0-6.43-1.25-8.89-3.94l-23.33-25.53-32.85,7.24c-.9,.2-1.79,.29-2.67,.29-7.88,0-14-7.76-11.47-15.76l13.49-42.61c1.71-5.41,6.6-8.45,11.58-8.45m0-8v8s0-8,0-8c-8.83,0-16.55,5.64-19.2,14.04l-13.49,42.61c-1.96,6.18-.89,12.71,2.93,17.92,3.78,5.17,9.83,8.25,16.17,8.25,1.46,0,2.94-.16,4.39-.48l28.34-6.24,20.22,22.12c3.86,4.22,9.11,6.55,14.79,6.55,8.83,0,16.55-5.64,19.21-14.04l13.49-42.59c1.96-6.18,.89-12.71-2.93-17.93-3.79-5.17-9.83-8.26-16.17-8.26-1.46,0-2.94,.16-4.39,.48l-28.33,6.24-20.22-22.12c-3.86-4.22-9.11-6.54-14.79-6.54h0Z"/>
      </g>
    </g>
  </g>
</svg>