<?xml version="1.0" encoding="UTF-8"?>
<svg id="Layer_2" data-name="Layer 2" xmlns="http://www.w3.org/2000/svg" viewBox="0 0 258.63 237.62">
  <defs>
    <style>
      .cls-1, .cls-2 {
        fill: #f2f2f2;
      }

      .cls-3 {
        fill: #1a1a1a;
      }

      .cls-4 {
        fill: #597def;
      }

      .cls-2 {
        font-family: SFPro-Bold, 'SF Pro';
        font-size: 48.87px;
        font-variation-settings: 'wdth' 100, 'opsz' 28, 'wght' 700;
      }

      .cls-5 {
        letter-spacing: 0em;
      }
    </style>
  </defs>
  <g id="Layer_1-2" data-name="Layer 1">
    <g id="GuzQ32">
      <g>
        <path class="cls-4" d="M224.45,114.93c1.75-96.46-28.78-148.09-94.01-39.13-7,0-21,0-30.9,2.48C13.17,2.24-19.49,23.5,11.42,135.8c-42.72,155.87,285.62,119.92,213.04-20.86Z"/>
        <path class="cls-1" d="M166.95,98.55c-49.3,1.05-49.11,73.91,.08,74.8,49.26-1.07,49.16-73.93-.08-74.8Z"/>
        <path class="cls-1" d="M70.02,110.21c-49.17,.5-49.79,73.54-.7,74.96,49.1-.43,49.83-73.66,.7-74.96Z"/>
        <path class="cls-3" d="M143.72,134.58c.19-33.11,45.65-32.8,46.2-.09-.47,33.59-45.55,33.62-46.2,.09Z"/>
        <path class="cls-3" d="M70.16,121.08c30.22,.84,29.69,50.02-.25,50.77-30.51-.55-30.25-50.43,.25-50.77Z"/>
        <rect class="cls-3" x="113.17" y="17.63" width="143.87" height="64.52" rx="18.08" ry="18.08" transform="translate(28.38 -60.51) rotate(20.08)"/>
        <text class="cls-2" transform="translate(132.67 47.27) rotate(20.08)"><tspan x="0" y="0">Be</tspan><tspan class="cls-5" x="58.39" y="0">t</tspan><tspan x="75.53" y="0">a</tspan></text>
      </g>
    </g>
  </g>
</svg>