<?xml version="1.0" encoding="UTF-8"?>
<svg id="Layer_2" data-name="Layer 2" xmlns="http://www.w3.org/2000/svg" viewBox="0 0 516.35 228.8">
  <defs>
    <style>
      .cls-1 {
        fill: #fff;
      }

      .cls-2 {
        fill: #f43f5e;
      }
    </style>
  </defs>
  <g id="Layer_1-2" data-name="Layer 1">
    <g id="black">
      <g>
        <path class="cls-1" d="M0,20.2C0,6.8,10.6,0,21.2,0s21,6.8,21,20.2l.2,25.8c8.4-4.4,23.4-5.6,28.8-5.6,41.4,0,63.2,31,63.2,69s-22,69-62.4,69h-.8c-13.4,0-25.2-5.8-29.2-12,0,7-9,11.6-18.6,11.6-11.2,0-23.4-6.2-23.4-22V20.2ZM91.2,109.4c0-21.4-13.8-28.8-24.4-28.8-15.8,0-25.4,11-25.4,28.8s9.2,28.6,25.4,28.6c10.6,0,24.4-8.4,24.4-28.6Z"/>
        <path class="cls-1" d="M144.6,120.4c.4,2.6,3.8,19.8,28.4,19.8,7.8,0,16-2.2,22-7,4.2-3.6,8.8-5,13.2-5,10.6,0,20,8.8,20,19.4,0,17.4-25.6,31-56,31-37.2,0-70-23-70-69,0-40.6,26.2-69.4,67.6-69.4,39.2,0,64.8,27.6,64.8,59,0,14-7.2,21.2-24.2,21.2h-65.8Zm44.4-27.6c2.8,0,4.2-1.2,4.2-3.6,0-3.6-5.4-15.4-23.8-15.4-13.2,.2-22.8,9.6-24.4,19h44Z"/>
        <path class="cls-1" d="M264.8,84v45.4c0,3.6,1.2,6,4,6,1.2,0,2.8-.4,4.8-1.6,4.2-2.6,8.4-3.6,12-3.6,11.6,0,19.8,10.2,19.8,21,0,19.2-25.4,27.4-42.8,27.4-21.4,0-41.2-12-41.2-39v-55.6h-6c-13,0-19.4-9.8-19.4-19.6s6.4-19.6,19.4-19.6h6v-15.4c0-13.6,10.8-20.4,21.8-20.4s21.6,6.8,21.6,20.4v15.4h20c12.8,0,19.2,9.8,19.2,19.6s-6.4,19.6-19.2,19.6h-20Z"/>
        <path class="cls-1" d="M326.39,178.8c-20.8,0-58.6-8.8-58.6-31.8,0-10.8,9.8-19.4,20.2-19.4,4.6,0,9.4,1.6,13.4,5.6,5,5,14.6,8.6,25,8.6,3,0,17.2-.4,17.2-8.4,0-3.2-3-6.4-9.2-8.4-7.4-2.2-18.4-3.2-26-4.6-26.4-5-38.4-21.4-38.4-38.2,0-20,17.6-43.4,58.8-43.4,21.4,0,54.2,6.6,54.2,26,0,9.6-8.2,18.6-18.6,18.6-4,0-8.2-1.2-12.4-4.2-6.6-4.6-14.6-6.6-22.6-6.6-1,0-16.6,0-16.6,7.8,0,2.6,2,5.2,6.4,6.4,9,2.4,16,3,25.2,5.4,30.2,8.2,44,25.8,44,43,0,23-24.2,43.6-62,43.6Z"/>
        <path class="cls-1" d="M351.39,73.8c-2.2-4.4-3.2-8.4-3.2-12.2,0-12.4,10.8-20.4,22.2-20.4,8.2,0,16.6,4.2,21.2,14.2l26.4,56.6,20.2-55.6c3.8-10.6,12.6-15.2,21.4-15.2,11.2,0,22.2,7.6,22.2,20.4,0,3.4-.8,7-2.4,10.8l-51.4,126.2c-9,21.6-24.2,30.2-43,30.2-9,0-32.4-.2-32.4-23,0-10.8,6.8-21.6,19.4-21.6,1.8,0,3.8,.4,5.8,.8,1,.2,2,.4,3,.4,3.2,0,5.6-1.6,7.4-4.2,2-3.2,6-11.8,7.6-17.2l-44.4-90.2Z"/>
      </g>
      <path class="cls-2" d="M501.63,30.18l-32.84,7.24-23.34-25.53c-6.28-6.87-17.65-4.37-20.46,4.51l-13.49,42.61c-2.81,8.88,5.04,17.47,14.14,15.47l32.85-7.24,23.33,25.53c6.29,6.88,17.66,4.37,20.47-4.51l13.49-42.59c2.81-8.88-5.04-17.48-14.14-15.47Z"/>
    </g>
  </g>
</svg>