<?xml version="1.0" encoding="UTF-8"?>
<svg id="Layer_2" data-name="Layer 2" xmlns="http://www.w3.org/2000/svg" viewBox="0 0 540.36 252.8">
  <defs>
    <style>
      .cls-1 {
        fill: #fff;
      }

      .cls-2 {
        fill: #f43f5e;
      }
    </style>
  </defs>
  <g id="Layer_1-2" data-name="Layer 1">
    <g id="black">
      <g>
        <path d="M396.99,246.8c-4.44,0-13.68,0-21.88-3.41-10.81-4.49-16.52-13.34-16.52-25.59,0-6.98,2.24-13.59,6.31-18.62,4.68-5.79,11.46-8.98,19.09-8.98,2.39,0,4.71,.46,6.96,.91,.72,.14,1.44,.29,1.84,.29,.52,0,1.31,0,2.39-1.51,1.5-2.45,4.45-8.7,6.15-13.44l-2.72-5.52c-11.27,16.03-33.49,25.86-60.22,25.86-9.06,0-22.85-1.65-35.48-6.22-8.29,3.79-18.65,6.02-28.31,6.02-16.16,0-29.85-6.11-38.2-16.71-11.11,10.35-30.46,16.71-52.2,16.71s-39.32-6.6-52.88-18.73c-12.09,12.15-28.31,18.53-47.32,18.53h-.8c-10.14,0-20.31-3.11-27.35-7.95-4.34,4.63-11.73,7.55-20.45,7.55-14.63,0-29.4-8.66-29.4-28V32.2C6,15,19.68,6,33.2,6s27,9,27,26.2l.13,17.22c8.89-2.4,18.84-3.02,22.87-3.02,19.3,0,35.7,6.29,47.86,18.26,13.04-12.1,30.44-18.46,50.74-18.46,12.19,0,23.48,2.45,33.62,7.29,3.55-1.77,7.62-2.69,11.98-2.69v-9.4c0-8.15,3.09-15.03,8.93-19.91,5.02-4.19,11.72-6.49,18.87-6.49,13.72,0,27.6,9.07,27.6,26.4v9.4h14c2.91,0,5.67,.41,8.25,1.22,10.09-4.8,22.11-7.22,35.75-7.22,10.72,0,22,1.51,31.35,4.18,3.27-1.17,6.77-1.78,10.25-1.78,11.59,0,21.55,6.61,26.65,17.69l20.26,43.43,15.25-41.98c4.23-11.8,14.6-19.15,27.04-19.15,7.15,0,13.96,2.42,19.17,6.81,5.82,4.91,9.03,11.87,9.03,19.59,0,4.19-.97,8.61-2.87,13.13l-51.37,126.13c-9.39,22.53-25.72,33.94-48.56,33.94Zm-85.42-110.36c2.18,1.16,4.22,2.67,6.06,4.52,3.41,3.41,11.14,6.84,20.76,6.84,5.9,0,10.17-1.33,11.13-2.34-.39-.53-1.75-1.7-4.91-2.73-4.45-1.31-10.52-2.19-16.38-3.03-3.2-.46-6.21-.9-8.92-1.4-2.69-.51-5.26-1.13-7.73-1.86Zm-146.13,1.96c2.89,3.91,8.53,7.8,19.55,7.8,7.05,0,13.67-2.05,18.18-5.63,.94-.8,1.91-1.52,2.91-2.17h-40.65Zm-86.65-39.8c-12.33,0-19.4,8.31-19.4,22.8,0,6.79,1.89,22.6,19.4,22.6,6.36,0,18.4-4.72,18.4-22.6,0-10.52-4.82-22.8-18.4-22.8Zm204,41.46c4.83-4.14,10.97-6.47,17.2-6.47,1.66,0,3.29,.16,4.86,.46-6.78-2.83-12.52-6.65-17.17-11.43-1.84-1.89-3.47-3.9-4.89-6.01v23.45Zm48.46-47.65c.32,.18,.81,.4,1.52,.6,4.31,1.15,8.14,1.86,12.2,2.62,4.02,.75,8.19,1.52,12.93,2.76,2.01,.54,3.96,1.13,5.87,1.77l-1.4-2.84c-.64-.39-1.26-.8-1.87-1.24-5.13-3.57-11.76-5.48-19.11-5.48-4.64,0-8.56,.95-10.14,1.81Zm-133.18,6.39c-1.96-2.94-6.73-6.99-16.62-7-6.53,.11-11.86,3.09-15.13,7h31.76Z"/>
        <path class="cls-1" d="M33.2,12c10.4,0,21,6.8,21,20.2l.2,25.8c8.4-4.4,23.4-5.6,28.8-5.6,21.1,0,37.09,8.06,47.72,20.99,11.76-13.31,29.24-21.19,50.88-21.19,12.91,0,24.33,3.01,33.86,8.14,3.01-2.19,6.92-3.54,11.74-3.54h6v-15.4c0-13.6,10.8-20.4,21.8-20.4s21.6,6.8,21.6,20.4v15.4h20c3.28,0,6.14,.65,8.58,1.77,8.97-4.76,20.68-7.77,35.42-7.77,9.58,0,21.45,1.33,31.63,4.53,3.08-1.39,6.49-2.13,9.97-2.13,8.2,0,16.6,4.2,21.2,14.2l26.4,56.6,20.2-55.6c3.8-10.6,12.6-15.2,21.4-15.2,11.2,0,22.2,7.6,22.2,20.4,0,3.4-.8,7-2.4,10.8l-51.4,126.2c-9,21.6-24.2,30.2-43,30.2-9,0-32.4-.2-32.4-23,0-10.8,6.8-21.6,19.4-21.6,1.8,0,3.8,.4,5.8,.8,1,.2,2,.4,3,.4,3.2,0,5.6-1.6,7.4-4.2,2-3.2,6-11.8,7.6-17.2l-9.08-18.44c-6.08,18.48-28.32,33.24-60.32,33.24-10.03,0-24-2.05-35.79-6.75-8.54,4.48-19.28,6.55-28.01,6.55-15.81,0-30.74-6.56-37.46-20.87-7.65,12.27-28.77,20.87-52.94,20.87-20.72,0-40.06-7.14-53.14-21.41-10.55,13.03-26.39,21.21-47.06,21.21h-.8c-13.4,0-25.2-5.8-29.2-12,0,7-9,11.6-18.6,11.6-11.2,0-23.4-6.2-23.4-22V32.2c0-13.4,10.6-20.2,21.2-20.2M376.37,112.17l-9.43-19.16c-.98-.51-1.97-1.11-2.95-1.81-6.6-4.6-14.6-6.6-22.6-6.6-1,0-16.6,0-16.6,7.8,0,2.6,2,5.2,6.4,6.4,9,2.4,16,3,25.2,5.4,7.72,2.1,14.36,4.81,19.98,7.97m-219.37-7.37h44c2.8,0,4.2-1.2,4.2-3.6,0-3.6-5.4-15.4-23.8-15.4-13.2,.2-22.8,9.6-24.4,19m-78.2,45.2c10.6,0,24.4-8.4,24.4-28.6,0-21.4-13.8-28.8-24.4-28.8-15.8,0-25.4,11-25.4,28.8s9.2,28.6,25.4,28.6m202-2.6c1.12,0,2.6-.36,4.43-1.39,3.81-3.94,9.2-6.41,14.77-6.41,4.6,0,9.4,1.6,13.4,5.6,5,5,14.6,8.6,25,8.6,3,0,17.2-.4,17.2-8.4,0-3.2-3-6.4-9.2-8.4-7.4-2.2-18.4-3.2-26-4.6-25.46-4.82-37.52-20.24-38.35-36.4h-5.25v45.4c0,3.6,1.2,6,4,6m-95.8,4.8c7.8,0,16-2.2,22-7,4.2-3.6,8.8-5,13.2-5,4.94,0,9.61,1.93,13.2,5.05v-14.2c-3.08,.9-6.73,1.36-11,1.36h-65.8c.4,2.6,3.8,19.8,28.4,19.8M33.2,0C24.81,0,16.88,2.82,10.86,7.93,3.86,13.87,0,22.49,0,32.2V168c0,10.83,4.28,20.18,12.05,26.33,6.24,4.95,14.54,7.67,23.35,7.67,8.31,0,15.64-2.3,21.05-6.17,7.58,4.1,17.11,6.57,26.75,6.57h.8c18.64,0,34.85-5.68,47.54-16.55,14.16,10.88,32.43,16.75,52.65,16.75s39-5.42,51.54-14.49c9.52,9.25,23.18,14.49,38.86,14.49,9.62,0,19.92-2.05,28.55-5.58,10.98,3.66,23.79,5.78,35.25,5.78,6.23,0,12.27-.51,18.05-1.5-2.51,4.97-3.85,10.64-3.85,16.5,0,14.65,7.18,25.71,20.22,31.13,9.31,3.87,19.35,3.87,24.18,3.87,25.13,0,43.83-13,54.08-37.58l.02-.04,.02-.04,51.37-126.14c2.2-5.24,3.31-10.42,3.31-15.39,0-9.52-3.96-18.1-11.16-24.17-6.29-5.31-14.47-8.23-23.04-8.23-15.04,0-27.56,8.86-32.69,23.12l-10.29,28.33-14.13-30.29c-6.11-13.25-18.1-21.16-32.09-21.16-3.51,0-7.04,.52-10.4,1.52-9.49-2.51-20.62-3.92-31.2-3.92-13.64,0-25.81,2.31-36.27,6.87-2.47-.58-5.05-.87-7.73-.87h-8v-3.4c0-9.82-3.92-18.52-11.03-24.49-6.08-5.1-14.09-7.91-22.57-7.91s-16.62,2.8-22.71,7.89c-7.15,5.97-11.09,14.67-11.09,24.51v3.91c-2.05,.36-4.03,.9-5.92,1.62-10.28-4.47-21.58-6.72-33.67-6.72-19.45,0-36.99,5.78-50.59,16.48-12.77-10.7-29.14-16.29-48.01-16.29-.13,0-7.9,.03-16.92,1.59l-.08-9.84c-.01-9.66-3.85-18.25-10.81-24.2C49.39,2.82,41.51,0,33.2,0h0Zm45.6,138c-4.37,0-7.55-1.21-9.7-3.7-2.39-2.76-3.7-7.34-3.7-12.9s1.31-10.33,3.79-13.15c2.16-2.46,5.3-3.65,9.61-3.65,2.91,0,12.4,1.21,12.4,16.8,0,16.41-11.89,16.6-12.4,16.6h0Z"/>
      </g>
      <g>
        <path class="cls-2" d="M502.7,114.7c-5.11,0-9.84-2.09-13.32-5.89l-21-22.97-29.46,6.49c-1.31,.29-2.64,.43-3.96,.43-5.71,0-11.15-2.78-14.56-7.44-3.44-4.69-4.4-10.57-2.64-16.14l13.49-42.61c2.39-7.56,9.35-12.64,17.3-12.64,5.11,0,9.84,2.09,13.31,5.89l21,22.98,29.46-6.49c1.31-.29,2.64-.43,3.96-.43,5.71,0,11.15,2.78,14.56,7.44,3.44,4.69,4.4,10.58,2.64,16.14l-13.49,42.59c-2.39,7.56-9.35,12.64-17.3,12.64Z"/>
        <path class="cls-1" d="M448.56,19.94c3.2,0,6.43,1.25,8.89,3.94l23.34,25.53,32.84-7.24c.9-.2,1.8-.29,2.67-.29,7.89,0,14.01,7.77,11.48,15.77l-13.49,42.59c-1.71,5.41-6.6,8.45-11.58,8.45-3.2,0-6.43-1.25-8.89-3.94l-23.33-25.53-32.85,7.24c-.9,.2-1.79,.29-2.67,.29-7.88,0-14-7.76-11.47-15.76l13.49-42.61c1.71-5.41,6.6-8.45,11.58-8.45m0-12h0c-10.58,0-19.83,6.76-23.02,16.83l-13.49,42.61c-2.35,7.41-1.06,15.24,3.51,21.49,4.54,6.19,11.79,9.89,19.4,9.89,1.75,0,3.52-.19,5.25-.57l26.08-5.75,18.66,20.41c4.62,5.06,10.93,7.85,17.75,7.85,10.58,0,19.83-6.76,23.02-16.83l13.49-42.59c2.35-7.41,1.06-15.24-3.52-21.5-4.54-6.19-11.79-9.89-19.4-9.89-1.75,0-3.52,.19-5.25,.58l-26.07,5.75-18.66-20.42c-4.62-5.06-10.93-7.85-17.74-7.85h0Z"/>
      </g>
    </g>
  </g>
</svg>