<?xml version="1.0" encoding="UTF-8"?>
<svg id="Layer_2" data-name="Layer 2" xmlns="http://www.w3.org/2000/svg" viewBox="0 0 234.97 222.9">
  <defs>
    <style>
      .cls-1 {
        fill: #f2f2f2;
      }

      .cls-2 {
        fill: #1a1a1a;
      }

      .cls-3 {
        fill: #597def;
      }
    </style>
  </defs>
  <g id="Layer_1-2" data-name="Layer 1">
    <g id="GuzQ32">
      <g>
        <path class="cls-3" d="M224.45,100.21c1.75-96.46-28.78-148.09-94.01-39.13-7,0-21,0-30.9,2.48C13.17-12.48-19.49,8.79,11.42,121.08c-42.72,155.87,285.62,119.92,213.04-20.86Z"/>
        <path class="cls-1" d="M166.95,83.83c-49.3,1.05-49.11,73.91,.08,74.8,49.26-1.07,49.16-73.93-.08-74.8Z"/>
        <path class="cls-1" d="M70.02,95.5c-49.17,.5-49.79,73.54-.7,74.96,49.1-.43,49.83-73.66,.7-74.96Z"/>
        <path class="cls-2" d="M143.72,119.86c.19-33.11,45.65-32.8,46.2-.09-.47,33.59-45.55,33.62-46.2,.09Z"/>
        <path class="cls-2" d="M70.16,106.36c30.22,.84,29.69,50.02-.25,50.77-30.51-.55-30.25-50.43,.25-50.77Z"/>
      </g>
    </g>
  </g>
</svg>