<?xml version="1.0" encoding="UTF-8"?>
<svg id="Layer_2" data-name="Layer 2" xmlns="http://www.w3.org/2000/svg" viewBox="0 0 516.35 228.8">
  <defs>
    <style>
      .cls-1 {
        fill: #f43f5e;
      }
    </style>
  </defs>
  <g id="Layer_1-2" data-name="Layer 1">
    <g id="black">
      <path d="M459.59,41.2c-8.8,0-17.6,4.6-21.4,15.2l-20.2,55.6-26.4-56.6c-4.6-10-13-14.2-21.2-14.2-3.48,0-6.89,.75-9.97,2.13-10.19-3.2-22.05-4.53-31.63-4.53-14.74,0-26.45,3.01-35.42,7.77-2.44-1.12-5.3-1.77-8.58-1.77h-20v-15.4c0-13.6-10.8-20.4-21.6-20.4s-21.8,6.8-21.8,20.4v15.4h-6c-4.82,0-8.73,1.35-11.74,3.54-9.53-5.13-20.95-8.14-33.86-8.14-21.64,0-39.12,7.88-50.88,21.19-10.63-12.93-26.62-20.99-47.72-20.99-5.4,0-20.4,1.2-28.8,5.6l-.2-25.8C42.2,6.8,31.6,0,21.2,0S0,6.8,0,20.2V156c0,15.8,12.2,22,23.4,22,9.6,0,18.6-4.6,18.6-11.6,4,6.2,15.8,12,29.2,12h.8c20.66,0,36.5-8.18,47.06-21.21,13.08,14.27,32.43,21.41,53.14,21.41,24.17,0,45.29-8.6,52.94-20.87,6.72,14.31,21.65,20.87,37.46,20.87,8.73,0,19.47-2.07,28.01-6.55,11.79,4.7,25.76,6.75,35.79,6.75,32,0,54.24-14.76,60.32-33.24l9.08,18.44c-1.6,5.4-5.6,14-7.6,17.2-1.8,2.6-4.2,4.2-7.4,4.2-1,0-2-.2-3-.4-2-.4-4-.8-5.8-.8-12.6,0-19.4,10.8-19.4,21.6,0,22.8,23.4,23,32.4,23,18.8,0,34-8.6,43-30.2l51.4-126.2c1.6-3.8,2.4-7.4,2.4-10.8,0-12.8-11-20.4-22.2-20.4ZM169.4,73.8c18.4,0,23.8,11.8,23.8,15.4,0,2.4-1.4,3.6-4.2,3.6h-44c1.6-9.4,11.2-18.8,24.4-19Zm-102.6,64.2c-16.2,0-25.4-11.4-25.4-28.6s9.6-28.8,25.4-28.8c10.6,0,24.4,7.4,24.4,28.8,0,20.2-13.8,28.6-24.4,28.6Zm141.4-9.8c-4.4,0-9,1.4-13.2,5-6,4.8-14.2,7-22,7-24.6,0-28-17.2-28.4-19.8h65.8c4.27,0,7.92-.46,11-1.36v14.2c-3.59-3.12-8.26-5.05-13.2-5.05Zm118.2,13.6c-10.4,0-20-3.6-25-8.6-4-4-8.8-5.6-13.4-5.6-5.56,0-10.96,2.46-14.77,6.41-1.83,1.03-3.31,1.39-4.43,1.39-2.8,0-4-2.4-4-6v-45.4h5.25c.83,16.16,12.89,31.58,38.35,36.4,7.6,1.4,18.6,2.4,26,4.6,6.2,2,9.2,5.2,9.2,8.4,0,8-14.2,8.4-17.2,8.4Zm18-49.6c-9.2-2.4-16.2-3-25.2-5.4-4.4-1.2-6.4-3.8-6.4-6.4,0-7.8,15.6-7.8,16.6-7.8,8,0,16,2,22.6,6.6,.98,.7,1.97,1.3,2.95,1.81l9.43,19.16c-5.62-3.16-12.26-5.87-19.98-7.97Z"/>
      <path class="cls-1" d="M501.63,30.18l-32.84,7.24-23.34-25.53c-6.28-6.87-17.65-4.37-20.46,4.51l-13.49,42.61c-2.81,8.88,5.04,17.47,14.14,15.47l32.85-7.24,23.33,25.53c6.29,6.88,17.66,4.37,20.47-4.51l13.49-42.59c2.81-8.88-5.04-17.48-14.14-15.47Z"/>
    </g>
  </g>
</svg>