<?xml version="1.0" encoding="UTF-8"?>
<svg id="Layer_2" data-name="Layer 2" xmlns="http://www.w3.org/2000/svg" xmlns:xlink="http://www.w3.org/1999/xlink" viewBox="0 0 1474.1 1603.58">
  <defs>
    <style>
      .cls-1 {
        fill: none;
      }

      .cls-2 {
        clip-path: url(#clippath);
      }

      .cls-3 {
        fill: #e61a35;
      }

      .cls-4 {
        fill: #09090b;
      }
    </style>
    <clipPath id="clippath">
      <path class="cls-1" d="M1163.32,982.95c-12.57-108.57-83.25-192.03-206.7-192.03-17.83,0-67.33,3.88-95.08,18.41l-.67-137.54-.03-5.59c0-44.26-35.01-66.72-69.36-66.72s-70.02,22.46-70.02,66.72v5.59l.04,502.95c.01,.32,.03,.64,.05,.95,2.45,48.62,41.2,71.1,77,71.1l162-.05c66.31-.32,117.51-26.19,152.14-67.54,5.64-6.74,10.85-13.89,15.6-21.41,24.43-38.6,37.07-86.9,37.07-138.98,0-12.2-.68-24.18-2.04-35.86Zm-221.23,130.33c-53.51,0-83.89-37.66-83.89-94.47s31.71-95.12,83.89-95.12c35.01,0,80.59,24.44,80.59,95.12,0,66.72-45.58,94.47-80.59,94.47Zm-220.59,61.46c-.06-1.33,0,1.35,0,0h0Z"/>
    </clipPath>
  </defs>
  <g id="Layer_1-2" data-name="Layer 1">
    <g class="cls-2">
      <g>
        <rect class="cls-4" x="574.13" y="609.16" width="651.69" height="949.64" transform="translate(1388.74 -237.41) rotate(60)"/>
        <rect class="cls-3" x="248.29" y="44.78" width="651.69" height="949.64" transform="translate(737.05 -237.41) rotate(60)"/>
      </g>
    </g>
  </g>
</svg>