<?xml version="1.0" encoding="UTF-8"?>
<svg id="Layer_2" data-name="Layer 2" xmlns="http://www.w3.org/2000/svg" viewBox="0 0 443.9 647.31">
  <defs>
    <style>
      .cls-1 {
        fill: #fa2e49;
      }

      .cls-2 {
        fill: #027cff;
      }
    </style>
  </defs>
  <g id="Layer_1-2" data-name="Layer 1">
    <g id="no_outline" data-name="no outline">
      <path d="M.04,575.26c-.06-1.33,0,1.35,0,0H.04ZM235.16,191.44c-17.83,0-67.37,3.96-95.12,18.49l-.63-137.62-.03-5.59C139.38,22.46,104.37,0,70.02,0S0,22.46,0,66.72v5.59l.04,502.95c.01,.32,.03,.64,.05,.95,2.45,48.62,41.2,71.1,77,71.1l162-.05c66.31-.32,117.51-26.19,152.14-67.54,5.64-6.74,10.85-13.89,15.6-21.41,24.43-38.6,37.07-86.9,37.07-138.98,0-125.5-72-227.89-208.74-227.89Zm-14.53,132.77c35.01,0,80.59,24.44,80.59,95.12,0,66.72-45.58,94.47-80.59,94.47-53.51,0-83.89-37.66-83.89-94.47s31.71-95.12,83.89-95.12Z"/>
      <path class="cls-2" d="M139.41,72.31H0v-5.59C0,22.46,35.01,0,70.02,0s69.36,22.46,69.36,66.72l.03,5.59Z"/>
      <path class="cls-1" d="M406.83,558.31c-4.75,7.52-9.96,14.67-15.6,21.41-34.63,41.35-85.83,67.22-152.14,67.54l-162,.05c-35.8,0-74.55-22.48-77-71.1v-17.9H406.83Z"/>
    </g>
  </g>
</svg>