<?xml version="1.0" encoding="UTF-8"?>
<svg id="Layer_2" data-name="Layer 2" xmlns="http://www.w3.org/2000/svg" viewBox="0 0 443.9 648">
  <defs>
    <style>
      .cls-1 {
        fill: #fa2e49;
      }

      .cls-2 {
        fill: #027cff;
      }
    </style>
  </defs>
  <g id="Layer_1-2" data-name="Layer 1">
    <g id="no_outline" data-name="no outline">
      <path d="M235.16,192.13c-17.83,0-67.37,3.96-95.12,18.49l-.63-137.62-.03-5.59C139.38,23.15,104.37,.69,70.02,.69S0,23.15,0,67.41v506.53c0,52.18,40.3,72.66,77.29,72.66,31.7,0,61.43-15.19,61.43-38.31,13.21,20.47,52.19,39.63,96.44,39.63h2.65c133.43,0,206.09-103.05,206.09-227.9s-72-227.89-208.74-227.89Zm-14.53,322.36c-53.51,0-83.89-37.66-83.89-94.47s31.71-95.12,83.89-95.12c35.01,0,80.59,24.44,80.59,95.12,0,66.72-45.58,94.47-80.59,94.47Z"/>
      <path class="cls-2" d="M139.41,73H0v-5.59C0,23.15,.09,20,.09,0H139.09c0,46,.29,46.81,.29,67.41l.03,5.59Z"/>
      <rect class="cls-1" x=".09" y="576" width="239" height="72"/>
    </g>
  </g>
</svg>