<?xml version="1.0" encoding="UTF-8"?>
<svg id="Layer_2" data-name="Layer 2" xmlns="http://www.w3.org/2000/svg" viewBox="0 0 483.9 688">
  <defs>
    <style>
      .cls-1 {
        fill: #fa2e49;
      }

      .cls-2 {
        fill: #027cff;
      }

      .cls-3 {
        fill: #fff;
      }
    </style>
  </defs>
  <g id="Layer_1-2" data-name="Layer 1">
    <g id="outline">
      <g>
        <path class="cls-3" d="M.09,688v-89.62c-.06-1.46-.09-2.95-.09-4.44V87.41c0-26.5,.03-38.28,.06-47.75,.02-6.34,.03-11.64,.03-19.66V0H179.09V20c0,27.47,.1,38.74,.19,47.81,.06,6.03,.1,11.23,.1,19.55l.03,5.53,.5,109.13c29.31-7.87,62-9.89,75.25-9.89,70.68,0,129.78,25.56,170.89,73.93,19,22.35,33.63,49,43.48,79.21,9.54,29.24,14.37,61.12,14.37,94.75,0,67.56-20.36,129.07-57.34,173.21-36.66,43.77-87.35,69.07-147.47,73.85v.83l-20,.09H.09ZM240.63,364.9c-19.93,0-35.57,6.3-46.49,18.72-11.38,12.94-17.4,32.44-17.4,56.4s5.88,42.59,17.01,55.46c10.91,12.62,26.69,19.01,46.88,19.01,14.02,0,28.79-6.2,39.51-16.58,13.79-13.36,21.08-33.38,21.08-57.89,0-26.36-7.04-46.39-20.92-59.55-10.44-9.9-24.9-15.57-39.67-15.57Z"/>
        <path class="cls-3" d="M255.16,212.13c-17.83,0-67.37,3.96-95.12,18.49l-.63-137.62-.03-5.59c0-20.6-.29-21.41-.29-67.41H20.09c0,20-.09,23.15-.09,67.41v506.53c0,1.36,.03,2.69,.09,4.01v70.05h239v-.09c132.62-.65,204.81-103.44,204.81-227.89s-72-227.89-208.74-227.89Zm-14.53,322.36c-53.51,0-83.89-37.66-83.89-94.47s31.71-95.12,83.89-95.12c35.01,0,80.59,24.44,80.59,95.12,0,66.72-45.58,94.47-80.59,94.47Z"/>
      </g>
      <path d="M255.16,212.13c-17.83,0-67.37,3.96-95.12,18.49l-.63-137.62-.03-5.59c0-44.26-35.01-66.72-69.36-66.72S20,43.15,20,87.41v506.53c0,52.18,40.3,72.66,77.29,72.66,31.7,0,61.43-15.19,61.43-38.31,13.21,20.47,52.19,39.63,96.44,39.63h2.65c133.43,0,206.09-103.05,206.09-227.9s-72-227.89-208.74-227.89Zm-14.53,322.36c-53.51,0-83.89-37.66-83.89-94.47s31.71-95.12,83.89-95.12c35.01,0,80.59,24.44,80.59,95.12,0,66.72-45.58,94.47-80.59,94.47Z"/>
      <path class="cls-2" d="M159.41,93H20v-5.59c0-44.26,.09-47.41,.09-67.41H159.09c0,46,.29,46.81,.29,67.41l.03,5.59Z"/>
      <rect class="cls-1" x="20.09" y="596" width="239" height="72"/>
    </g>
  </g>
</svg>