<?xml version="1.0" encoding="UTF-8"?>
<svg id="Layer_2" data-name="Layer 2" xmlns="http://www.w3.org/2000/svg" viewBox="0 0 134.4 178.4">
  <defs>
    <style>
      .cls-1 {
        fill: #f43f5e;
      }
    </style>
  </defs>
  <g id="Layer_1-2" data-name="Layer 1">
    <g>
      <path d="M0,20.2C0,6.8,10.6,0,21.2,0s21,6.8,21,20.2l.2,25.8c8.4-4.4,23.4-5.6,28.8-5.6,41.4,0,63.2,31,63.2,69s-22,69-62.4,69h-.8c-13.4,0-25.2-5.8-29.2-12,0,7-9,11.6-18.6,11.6-11.2,0-23.4-6.2-23.4-22V20.2ZM91.2,109.4c0-21.4-13.8-28.8-24.4-28.8-15.8,0-25.4,11-25.4,28.8s9.2,28.6,25.4,28.6c10.6,0,24.4-8.4,24.4-28.6Z"/>
      <path class="cls-1" d="M119.5,22.84l-32.84,7.24L63.33,4.54C57.04-2.33,45.68,.17,42.86,9.05l-13.49,42.61c-2.81,8.88,5.04,17.47,14.14,15.47l32.85-7.24,23.33,25.53c6.29,6.88,17.66,4.37,20.47-4.51l13.49-42.59c2.81-8.88-5.04-17.48-14.14-15.47Z"/>
    </g>
  </g>
</svg>