<?xml version="1.0" standalone="no"?>
<!DOCTYPE svg PUBLIC "-//W3C//DTD SVG 20010904//EN"
 "http://www.w3.org/TR/2001/REC-SVG-20010904/DTD/svg10.dtd">
<svg version="1.0" xmlns="http://www.w3.org/2000/svg"
 width="940.000000pt" height="940.000000pt" viewBox="0 0 940.000000 940.000000"
 preserveAspectRatio="xMidYMid meet">
<metadata>
Created by potrace 1.14, written by Peter Selinger 2001-2017
</metadata>
<g transform="translate(0.000000,940.000000) scale(0.100000,-0.100000)"
fill="#000000" stroke="none">
<path d="M7533 9146 c-104 -20 -194 -51 -308 -106 -541 -261 -1210 -1022
-1913 -2176 l-92 -151 -303 -6 c-400 -8 -670 -33 -878 -81 l-56 -13 -74 64
c-155 136 -550 463 -702 582 -815 635 -1479 1006 -2012 1122 -80 18 -135 22
-270 23 -198 1 -259 -11 -395 -77 -70 -34 -102 -58 -180 -137 -66 -66 -109
-119 -139 -174 -311 -551 -273 -1604 114 -3181 35 -143 80 -318 99 -388 l35
-129 -33 -136 c-40 -164 -92 -465 -106 -617 -13 -144 -13 -483 1 -621 24 -246
104 -561 203 -795 180 -423 543 -847 978 -1140 390 -263 830 -452 1358 -584
411 -103 775 -153 1282 -177 529 -24 1219 35 1767 152 1565 334 2741 1093
3230 2085 154 312 239 644 257 1010 23 451 -121 1055 -369 1552 l-44 88 -6
440 c-4 242 -11 528 -17 635 -78 1420 -351 2364 -797 2753 -86 74 -221 147
-318 173 -85 22 -226 26 -312 10z m-540 -3376 c151 -32 251 -66 382 -130 382
-188 659 -559 749 -1006 37 -183 37 -465 0 -648 -39 -192 -130 -409 -236 -564
-72 -104 -219 -255 -316 -325 -455 -327 -1109 -371 -1608 -108 -376 198 -641
562 -725 994 -68 350 -28 697 118 1007 205 438 581 712 1092 795 126 21 416
13 544 -15z m-4089 -440 c532 -44 953 -314 1178 -755 68 -134 102 -228 134
-365 126 -550 -40 -1135 -423 -1490 -196 -181 -443 -301 -723 -352 -166 -30
-403 -30 -565 1 -578 108 -998 501 -1139 1066 -40 159 -49 260 -43 465 6 192
23 298 76 460 36 108 146 320 215 410 246 326 621 526 1049 559 56 5 107 9
112 9 6 1 63 -3 129 -8z"/>
<path d="M6466 5334 c-306 -66 -549 -283 -654 -584 -46 -133 -57 -209 -57
-385 1 -319 87 -546 280 -741 177 -178 385 -264 640 -264 255 0 464 86 640
265 221 223 322 562 270 906 -61 408 -315 699 -694 795 -76 20 -118 24 -225
23 -74 0 -161 -7 -200 -15z"/>
<path d="M2715 4899 c-217 -21 -425 -121 -561 -272 -364 -403 -355 -1120 20
-1501 194 -196 479 -288 757 -241 183 30 327 99 454 217 205 191 317 472 317
793 0 157 -12 235 -57 374 -137 421 -504 670 -930 630z"/>
</g>
</svg>
