<?xml version="1.0" encoding="UTF-8"?>
<svg id="Layer_2" data-name="Layer 2" xmlns="http://www.w3.org/2000/svg" viewBox="0 0 121.46 104.76">
  <defs>
    <style>
      .cls-1 {
        fill: #fff;
      }

      .cls-2 {
        fill: #f43f5e;
      }
    </style>
  </defs>
  <g id="Layer_2-2" data-name="Layer 2">
    <g id="Layer_1-2" data-name="Layer 1-2">
      <g id="outlined">
        <g>
          <path class="cls-2" d="M98.72,30.24l-32.84,7.24L42.54,11.94c-6.28-6.87-17.65-4.37-20.46,4.51L8.59,59.06c-2.81,8.88,5.04,17.47,14.14,15.47l32.85-7.24,23.33,25.53c6.29,6.88,17.66,4.37,20.47-4.51l13.49-42.59c2.81-8.88-5.04-17.48-14.14-15.47h0Z"/>
          <path class="cls-1" d="M33.66,8c3.2,0,6.43,1.25,8.89,3.94l23.34,25.53,32.84-7.24c.9-.2,1.8-.29,2.67-.29,7.89,0,14.01,7.77,11.48,15.77l-13.49,42.59c-1.71,5.41-6.6,8.45-11.58,8.45-3.2,0-6.43-1.25-8.89-3.94l-23.33-25.53-32.85,7.24c-.9,.2-1.79,.29-2.67,.29-7.88,0-14-7.76-11.47-15.76L22.08,16.45c1.71-5.41,6.6-8.45,11.58-8.45m0-8V0C24.83,0,17.11,5.64,14.45,14.04L.96,56.64c-1.96,6.18-.89,12.71,2.93,17.92,3.78,5.17,9.83,8.25,16.17,8.25,1.46,0,2.94-.16,4.39-.48l28.34-6.24,20.22,22.12c3.86,4.22,9.11,6.55,14.79,6.55,8.83,0,16.55-5.64,19.21-14.04l13.49-42.59c1.96-6.18,.89-12.71-2.93-17.93-3.79-5.17-9.83-8.26-16.17-8.26-1.46,0-2.94,.16-4.39,.48l-28.33,6.24L48.45,6.54c-3.86-4.22-9.11-6.54-14.79-6.54h0Z"/>
        </g>
      </g>
    </g>
  </g>
</svg>