<?xml version="1.0" encoding="UTF-8"?>
<svg id="Layer_2" data-name="Layer 2" xmlns="http://www.w3.org/2000/svg" viewBox="0 0 163.96 206.5">
  <defs>
    <style>
      .cls-1 {
        fill: #fff;
      }

      .cls-2 {
        fill: #f43f5e;
      }
    </style>
  </defs>
  <g id="Layer_1-2" data-name="Layer 1">
    <g>
      <g>
        <path d="M12,36.3c0-13.4,10.6-20.2,21.2-20.2s21,6.8,21,20.2l.2,25.8c8.4-4.4,23.4-5.6,28.8-5.6,41.4,0,63.2,31,63.2,69s-22,69-62.4,69h-.8c-13.4,0-25.2-5.8-29.2-12,0,7-9,11.6-18.6,11.6-11.2,0-23.4-6.2-23.4-22V36.3ZM103.2,125.5c0-21.4-13.8-28.8-24.4-28.8-15.8,0-25.4,11-25.4,28.8s9.2,28.6,25.4,28.6c10.6,0,24.4-8.4,24.4-28.6Z"/>
        <path class="cls-1" d="M33.2,16.1c10.4,0,21,6.8,21,20.2l.2,25.8c8.4-4.4,23.4-5.6,28.8-5.6,41.4,0,63.2,31,63.2,69s-22,69-62.4,69h-.8c-13.4,0-25.2-5.8-29.2-12,0,7-9,11.6-18.6,11.6-11.2,0-23.4-6.2-23.4-22V36.3c0-13.4,10.6-20.2,21.2-20.2m45.6,138c10.6,0,24.4-8.4,24.4-28.6,0-21.4-13.8-28.8-24.4-28.8-15.8,0-25.4,11-25.4,28.8s9.2,28.6,25.4,28.6M33.2,4.1c-8.39,0-16.32,2.82-22.34,7.93C3.86,17.97,0,26.59,0,36.3V172.1c0,10.83,4.28,20.18,12.05,26.33,6.24,4.95,14.54,7.67,23.35,7.67,8.31,0,15.64-2.3,21.05-6.17,7.58,4.1,17.11,6.57,26.75,6.57h.8c22.77,0,41.97-8.5,55.53-24.59,12.17-14.45,18.87-34.48,18.87-56.41s-6.72-42.16-18.93-56.52c-13.61-16.01-33.07-24.48-56.27-24.48-.13,0-7.9,.03-16.92,1.59l-.08-9.84c-.01-9.66-3.85-18.26-10.81-24.2-6-5.13-13.88-7.95-22.19-7.95h0Z"/>
      </g>
      <g>
        <path class="cls-2" d="M130.31,100.76c-4.54,0-8.75-1.86-11.84-5.24l-21.78-23.82-30.59,6.74c-1.17,.26-2.35,.39-3.53,.39-5.07,0-9.91-2.47-12.94-6.62-3.06-4.17-3.91-9.4-2.34-14.35L60.78,15.24c2.13-6.73,8.31-11.24,15.39-11.24,4.54,0,8.75,1.86,11.84,5.24l21.78,23.83,30.58-6.74c1.17-.26,2.35-.39,3.53-.39,5.07,0,9.91,2.47,12.95,6.62,3.06,4.17,3.91,9.41,2.34,14.35l-13.49,42.59c-2.13,6.73-8.32,11.25-15.4,11.25,0,0,0,0,0,0Z"/>
        <path class="cls-1" d="M76.17,8c3.2,0,6.43,1.25,8.89,3.94l23.34,25.53,32.84-7.24c.9-.2,1.8-.29,2.67-.29,7.89,0,14.01,7.77,11.48,15.77l-13.49,42.59c-1.71,5.41-6.6,8.45-11.58,8.45-3.2,0-6.43-1.25-8.89-3.94l-23.33-25.53-32.85,7.24c-.9,.2-1.79,.29-2.67,.29-7.88,0-14-7.76-11.47-15.76l13.49-42.61c1.71-5.41,6.6-8.45,11.58-8.45M76.17,0V8S76.17,0,76.17,0c-8.83,0-16.55,5.64-19.2,14.04l-13.49,42.61c-1.96,6.18-.89,12.71,2.93,17.92,3.78,5.17,9.83,8.25,16.17,8.25,1.46,0,2.94-.16,4.39-.48l28.34-6.24,20.22,22.12c3.86,4.22,9.11,6.55,14.79,6.55,8.83,0,16.55-5.64,19.21-14.04l13.49-42.59c1.96-6.18,.89-12.71-2.93-17.93-3.79-5.17-9.83-8.26-16.17-8.26-1.46,0-2.94,.16-4.39,.48l-28.33,6.24L90.96,6.54C87.11,2.32,81.85,0,76.17,0h0Z"/>
      </g>
    </g>
  </g>
</svg>